<svg class="main-svg" xmlns="http://www.w3.org/2000/svg" xmlns:xlink="http://www.w3.org/1999/xlink" width="700" height="500" style="" viewBox="0 0 700 500"><rect x="0" y="0" width="700" height="500" style="fill: rgb(255, 255, 255); fill-opacity: 1;"/><defs id="defs-f33bd2"><g class="clips"><clipPath id="clipf33bd2xyplot" class="plotclip"><rect width="472" height="273"/></clipPath><clipPath class="axesclip" id="clipf33bd2x"><rect x="80" y="0" width="472" height="500"/></clipPath><clipPath class="axesclip" id="clipf33bd2y"><rect x="0" y="100" width="700" height="273"/></clipPath><clipPath class="axesclip" id="clipf33bd2xy"><rect x="80" y="100" width="472" height="273"/></clipPath></g><g class="gradients"/></defs><g class="bglayer"><rect class="bg" x="80" y="100" width="472" height="273" style="fill: rgb(229, 236, 246); fill-opacity: 1; stroke-width: 0;"/></g><g class="layer-below"><g class="imagelayer"/><g class="shapelayer"/></g><g class="cartesianlayer"><g class="subplot xy"><g class="layer-subplot"><g class="shapelayer"/><g class="imagelayer"/></g><g class="gridlayer"><g class="x"><path class="xgrid crisp" transform="translate(116.28999999999999,0)" d="M0,100v273" style="stroke: rgb(255, 255, 255); stroke-opacity: 1; stroke-width: 1px;"/><path class="xgrid crisp" transform="translate(182.86,0)" d="M0,100v273" style="stroke: rgb(255, 255, 255); stroke-opacity: 1; stroke-width: 1px;"/><path class="xgrid crisp" transform="translate(249.43,0)" d="M0,100v273" style="stroke: rgb(255, 255, 255); stroke-opacity: 1; stroke-width: 1px;"/><path class="xgrid crisp" transform="translate(316,0)" d="M0,100v273" style="stroke: rgb(255, 255, 255); stroke-opacity: 1; stroke-width: 1px;"/><path class="xgrid crisp" transform="translate(382.57,0)" d="M0,100v273" style="stroke: rgb(255, 255, 255); stroke-opacity: 1; stroke-width: 1px;"/><path class="xgrid crisp" transform="translate(449.14,0)" d="M0,100v273" style="stroke: rgb(255, 255, 255); stroke-opacity: 1; stroke-width: 1px;"/><path class="xgrid crisp" transform="translate(515.71,0)" d="M0,100v273" style="stroke: rgb(255, 255, 255); stroke-opacity: 1; stroke-width: 1px;"/></g><g class="y"><path class="ygrid crisp" transform="translate(0,304.75)" d="M80,0h472" style="stroke: rgb(255, 255, 255); stroke-opacity: 1; stroke-width: 1px;"/><path class="ygrid crisp" transform="translate(0,259.25)" d="M80,0h472" style="stroke: rgb(255, 255, 255); stroke-opacity: 1; stroke-width: 1px;"/><path class="ygrid crisp" transform="translate(0,213.75)" d="M80,0h472" style="stroke: rgb(255, 255, 255); stroke-opacity: 1; stroke-width: 1px;"/><path class="ygrid crisp" transform="translate(0,168.25)" d="M80,0h472" style="stroke: rgb(255, 255, 255); stroke-opacity: 1; stroke-width: 1px;"/><path class="ygrid crisp" transform="translate(0,122.75)" d="M80,0h472" style="stroke: rgb(255, 255, 255); stroke-opacity: 1; stroke-width: 1px;"/></g></g><g class="zerolinelayer"><path class="yzl zl crisp" transform="translate(0,350.25)" d="M80,0h472" style="stroke: rgb(255, 255, 255); stroke-opacity: 1; stroke-width: 2px;"/></g><path class="xlines-below"/><path class="ylines-below"/><g class="overlines-below"/><g class="xaxislayer-below"/><g class="yaxislayer-below"/><g class="overaxes-below"/><g class="plot" transform="translate(80, 100)" clip-path="url('#clipf33bd2xyplot')"><g class="boxlayer mlayer"><g class="trace boxes" style="opacity: 1;"><path class="box" d="M14.15,249H19.59M14.15,250H19.59V244.41H14.15ZM16.87,250V250.09M16.87,244.41V244.41M15.51,250.09H18.23M15.51,244.41H18.23" style="vector-effect: non-scaling-stroke; stroke-width: 2px; stroke: rgb(255, 0, 0); stroke-opacity: 1; fill: rgb(255, 0, 0); fill-opacity: 0.5;"/><path class="box" d="M80.72,222.62H86.16M80.72,231.87H86.16V215.58H80.72ZM83.44,231.87V232.93M83.44,215.58V213.52M82.08,232.93H84.8M82.08,213.52H84.8" style="vector-effect: non-scaling-stroke; stroke-width: 2px; stroke: rgb(255, 0, 0); stroke-opacity: 1; fill: rgb(255, 0, 0); fill-opacity: 0.5;"/><path class="box" d="M147.29,233.69H152.73M147.29,243.45H152.73V229.5H147.29ZM150.01,243.45V247.27M150.01,229.5V225.55M148.65,247.27H151.37M148.65,225.55H151.37" style="vector-effect: non-scaling-stroke; stroke-width: 2px; stroke: rgb(255, 0, 0); stroke-opacity: 1; fill: rgb(255, 0, 0); fill-opacity: 0.5;"/><path class="box" d="M213.86,110.18H219.3M213.86,139.4H219.3V92.53H213.86ZM216.58,139.4V176.7M216.58,92.53V80.41M215.22,176.7H217.94M215.22,80.41H217.94" style="vector-effect: non-scaling-stroke; stroke-width: 2px; stroke: rgb(255, 0, 0); stroke-opacity: 1; fill: rgb(255, 0, 0); fill-opacity: 0.5;"/><path class="box" d="M280.44,212.58H285.87M280.44,218.22H285.87V209.61H280.44ZM283.15,218.22V226.6M283.15,209.61V205.77M281.8,226.6H284.51M281.8,205.77H284.51" style="vector-effect: non-scaling-stroke; stroke-width: 2px; stroke: rgb(255, 0, 0); stroke-opacity: 1; fill: rgb(255, 0, 0); fill-opacity: 0.5;"/><path class="box" d="M347.01,249.16H352.44M347.01,250.16H352.44V245.38H347.01ZM349.73,250.16V250.18M349.73,245.38V245.38M348.37,250.18H351.09M348.37,245.38H351.09" style="vector-effect: non-scaling-stroke; stroke-width: 2px; stroke: rgb(255, 0, 0); stroke-opacity: 1; fill: rgb(255, 0, 0); fill-opacity: 0.5;"/><path class="box" d="M413.58,249.16H419.02M413.58,250.16H419.02V247.15H413.58ZM416.3,250.16V250.22M416.3,247.15V245.01M414.94,250.22H417.66M414.94,245.01H417.66" style="vector-effect: non-scaling-stroke; stroke-width: 2px; stroke: rgb(255, 0, 0); stroke-opacity: 1; fill: rgb(255, 0, 0); fill-opacity: 0.5;"/><g class="points"><path class="point" transform="translate(16.87,235.26)" d="M3,0A3,3 0 1,1 0,-3A3,3 0 0,1 3,0Z" style="opacity: 1; stroke-width: 0px; fill: rgb(255, 0, 0); fill-opacity: 1;"/><path class="point" transform="translate(16.87,225.15)" d="M3,0A3,3 0 1,1 0,-3A3,3 0 0,1 3,0Z" style="opacity: 1; stroke-width: 0px; fill: rgb(255, 0, 0); fill-opacity: 1;"/></g><g class="points"/><g class="points"/><g class="points"/><g class="points"><path class="point" transform="translate(283.15,177.71)" d="M3,0A3,3 0 1,1 0,-3A3,3 0 0,1 3,0Z" style="opacity: 1; stroke-width: 0px; fill: rgb(255, 0, 0); fill-opacity: 1;"/></g><g class="points"><path class="point" transform="translate(349.73,235.04)" d="M3,0A3,3 0 1,1 0,-3A3,3 0 0,1 3,0Z" style="opacity: 1; stroke-width: 0px; fill: rgb(255, 0, 0); fill-opacity: 1;"/><path class="point" transform="translate(349.73,209.69)" d="M3,0A3,3 0 1,1 0,-3A3,3 0 0,1 3,0Z" style="opacity: 1; stroke-width: 0px; fill: rgb(255, 0, 0); fill-opacity: 1;"/></g><g class="points"><path class="point" transform="translate(416.3,235.93)" d="M3,0A3,3 0 1,1 0,-3A3,3 0 0,1 3,0Z" style="opacity: 1; stroke-width: 0px; fill: rgb(255, 0, 0); fill-opacity: 1;"/></g><path class="mean" d="M14.15,245.28H19.59m0,0L16.87,253.32L14.15,245.28L16.87,237.24Z" style="fill: none; vector-effect: non-scaling-stroke; stroke-width: 2; stroke-dasharray: 4px, 2px; stroke: rgb(255, 0, 0); stroke-opacity: 1;"/><path class="mean" d="M80.72,223.15H86.16m0,0L83.44,230.61L80.72,223.15L83.44,215.68Z" style="fill: none; vector-effect: non-scaling-stroke; stroke-width: 2; stroke-dasharray: 4px, 2px; stroke: rgb(255, 0, 0); stroke-opacity: 1;"/><path class="mean" d="M147.29,235.71H152.73m0,0L150.01,243L147.29,235.71L150.01,228.42Z" style="fill: none; vector-effect: non-scaling-stroke; stroke-width: 2; stroke-dasharray: 4px, 2px; stroke: rgb(255, 0, 0); stroke-opacity: 1;"/><path class="mean" d="M213.86,116.76H219.3m0,0L216.58,147.69L213.86,116.76L216.58,85.84Z" style="fill: none; vector-effect: non-scaling-stroke; stroke-width: 2; stroke-dasharray: 4px, 2px; stroke: rgb(255, 0, 0); stroke-opacity: 1;"/><path class="mean" d="M280.44,211.46H285.87m0,0L283.15,224.45L280.44,211.46L283.15,198.48Z" style="fill: none; vector-effect: non-scaling-stroke; stroke-width: 2; stroke-dasharray: 4px, 2px; stroke: rgb(255, 0, 0); stroke-opacity: 1;"/><path class="mean" d="M347.01,244.05H352.44m0,0L349.73,256.37L347.01,244.05L349.73,231.74Z" style="fill: none; vector-effect: non-scaling-stroke; stroke-width: 2; stroke-dasharray: 4px, 2px; stroke: rgb(255, 0, 0); stroke-opacity: 1;"/><path class="mean" d="M413.58,247.83H419.02m0,0L416.3,252.13L413.58,247.83L416.3,243.54Z" style="fill: none; vector-effect: non-scaling-stroke; stroke-width: 2; stroke-dasharray: 4px, 2px; stroke: rgb(255, 0, 0); stroke-opacity: 1;"/></g><g class="trace boxes" style="opacity: 1;"><path class="box" d="M21.92,238.31H27.35M21.92,240.24H27.35V235.86H21.92ZM24.64,240.24V241.62M24.64,235.86V235.86M23.28,241.62H25.99M23.28,235.86H25.99" style="vector-effect: non-scaling-stroke; stroke-width: 2px; stroke: rgb(0, 0, 255); stroke-opacity: 1; fill: rgb(0, 0, 255); fill-opacity: 0.5;"/><path class="box" d="M88.49,232.89H93.93M88.49,237.27H93.93V222.36H88.49ZM91.21,237.27V244.08M91.21,222.36V215.02M89.85,244.08H92.57M89.85,215.02H92.57" style="vector-effect: non-scaling-stroke; stroke-width: 2px; stroke: rgb(0, 0, 255); stroke-opacity: 1; fill: rgb(0, 0, 255); fill-opacity: 0.5;"/><path class="box" d="M155.06,249.98H160.5M155.06,250H160.5V249.66H155.06ZM157.78,250V250.13M157.78,249.66V249.57M156.42,250.13H159.14M156.42,249.57H159.14" style="vector-effect: non-scaling-stroke; stroke-width: 2px; stroke: rgb(0, 0, 255); stroke-opacity: 1; fill: rgb(0, 0, 255); fill-opacity: 0.5;"/><path class="box" d="M221.63,245.11H227.07M221.63,247.22H227.07V242.95H221.63ZM224.35,247.22V247.6M224.35,242.95V241.46M222.99,247.6H225.71M222.99,241.46H225.71" style="vector-effect: non-scaling-stroke; stroke-width: 2px; stroke: rgb(0, 0, 255); stroke-opacity: 1; fill: rgb(0, 0, 255); fill-opacity: 0.5;"/><path class="box" d="M288.2,249.75H293.64M288.2,250.06H293.64V249.64H288.2ZM290.92,250.06V250.09M290.92,249.64V249.57M289.56,250.09H292.28M289.56,249.57H292.28" style="vector-effect: non-scaling-stroke; stroke-width: 2px; stroke: rgb(0, 0, 255); stroke-opacity: 1; fill: rgb(0, 0, 255); fill-opacity: 0.5;"/><path class="box" d="M354.77,93.35H360.21M354.77,121.88H360.21V58.95H354.77ZM357.49,121.88V162.89M357.49,58.95V47.7M356.13,162.89H358.85M356.13,47.7H358.85" style="vector-effect: non-scaling-stroke; stroke-width: 2px; stroke: rgb(0, 0, 255); stroke-opacity: 1; fill: rgb(0, 0, 255); fill-opacity: 0.5;"/><path class="box" d="M421.35,231.39H426.78M421.35,242.59H426.78V188.87H421.35ZM424.06,242.59V243.63M424.06,188.87V154.87M422.71,243.63H425.42M422.71,154.87H425.42" style="vector-effect: non-scaling-stroke; stroke-width: 2px; stroke: rgb(0, 0, 255); stroke-opacity: 1; fill: rgb(0, 0, 255); fill-opacity: 0.5;"/><g class="points"><path class="point" transform="translate(24.64,227.28)" d="M3,0A3,3 0 1,1 0,-3A3,3 0 0,1 3,0Z" style="opacity: 1; stroke-width: 0px; fill: rgb(0, 0, 255); fill-opacity: 1;"/><path class="point" transform="translate(24.64,218.46)" d="M3,0A3,3 0 1,1 0,-3A3,3 0 0,1 3,0Z" style="opacity: 1; stroke-width: 0px; fill: rgb(0, 0, 255); fill-opacity: 1;"/></g><g class="points"/><g class="points"/><g class="points"/><g class="points"><path class="point" transform="translate(290.92,248.74)" d="M3,0A3,3 0 1,1 0,-3A3,3 0 0,1 3,0Z" style="opacity: 1; stroke-width: 0px; fill: rgb(0, 0, 255); fill-opacity: 1;"/></g><g class="points"/><g class="points"/><path class="mean" d="M21.92,235.7H27.35m0,0L24.64,242.58L21.92,235.7L24.64,228.82Z" style="fill: none; vector-effect: non-scaling-stroke; stroke-width: 2; stroke-dasharray: 4px, 2px; stroke: rgb(0, 0, 255); stroke-opacity: 1;"/><path class="mean" d="M88.49,230.41H93.93m0,0L91.21,239.73L88.49,230.41L91.21,221.09Z" style="fill: none; vector-effect: non-scaling-stroke; stroke-width: 2; stroke-dasharray: 4px, 2px; stroke: rgb(0, 0, 255); stroke-opacity: 1;"/><path class="mean" d="M155.06,249.9H160.5m0,0L157.78,250.08L155.06,249.9L157.78,249.71Z" style="fill: none; vector-effect: non-scaling-stroke; stroke-width: 2; stroke-dasharray: 4px, 2px; stroke: rgb(0, 0, 255); stroke-opacity: 1;"/><path class="mean" d="M221.63,244.95H227.07m0,0L224.35,247.18L221.63,244.95L224.35,242.73Z" style="fill: none; vector-effect: non-scaling-stroke; stroke-width: 2; stroke-dasharray: 4px, 2px; stroke: rgb(0, 0, 255); stroke-opacity: 1;"/><path class="mean" d="M288.2,249.74H293.64m0,0L290.92,250.12L288.2,249.74L290.92,249.35Z" style="fill: none; vector-effect: non-scaling-stroke; stroke-width: 2; stroke-dasharray: 4px, 2px; stroke: rgb(0, 0, 255); stroke-opacity: 1;"/><path class="mean" d="M354.77,95.01H360.21m0,0L357.49,131.9L354.77,95.01L357.49,58.12Z" style="fill: none; vector-effect: non-scaling-stroke; stroke-width: 2; stroke-dasharray: 4px, 2px; stroke: rgb(0, 0, 255); stroke-opacity: 1;"/><path class="mean" d="M421.35,218.55H426.78m0,0L424.06,247.92L421.35,218.55L424.06,189.19Z" style="fill: none; vector-effect: non-scaling-stroke; stroke-width: 2; stroke-dasharray: 4px, 2px; stroke: rgb(0, 0, 255); stroke-opacity: 1;"/></g><g class="trace boxes" style="opacity: 1;"><path class="box" d="M29.68,219.08H35.12M29.68,220.08H35.12V217.15H29.68ZM32.4,220.08V221.93M32.4,217.15V213.75M31.04,221.93H33.76M31.04,213.75H33.76" style="vector-effect: non-scaling-stroke; stroke-width: 2px; stroke: rgb(128, 128, 128); stroke-opacity: 1; fill: rgb(128, 128, 128); fill-opacity: 0.5;"/><path class="box" d="M96.26,212.76H101.69M96.26,214.07H101.69V208.78H96.26ZM98.97,214.07V216.24M98.97,208.78V206.61M97.61,216.24H100.33M97.61,206.61H100.33" style="vector-effect: non-scaling-stroke; stroke-width: 2px; stroke: rgb(128, 128, 128); stroke-opacity: 1; fill: rgb(128, 128, 128); fill-opacity: 0.5;"/><path class="box" d="M162.83,230.96H168.26M162.83,233.04H168.26V227.63H162.83ZM165.55,233.04V234.99M165.55,227.63V223.3M164.19,234.99H166.9M164.19,223.3H166.9" style="vector-effect: non-scaling-stroke; stroke-width: 2px; stroke: rgb(128, 128, 128); stroke-opacity: 1; fill: rgb(128, 128, 128); fill-opacity: 0.5;"/><path class="box" d="M229.4,205.59H234.84M229.4,207.55H234.84V202.85H229.4ZM232.12,207.55V207.92M232.12,202.85V197.01M230.76,207.92H233.48M230.76,197.01H233.48" style="vector-effect: non-scaling-stroke; stroke-width: 2px; stroke: rgb(128, 128, 128); stroke-opacity: 1; fill: rgb(128, 128, 128); fill-opacity: 0.5;"/><path class="box" d="M295.97,214.53H301.41M295.97,216.57H301.41V208.99H295.97ZM298.69,216.57V216.78M298.69,208.99V206.61M297.33,216.78H300.05M297.33,206.61H300.05" style="vector-effect: non-scaling-stroke; stroke-width: 2px; stroke: rgb(128, 128, 128); stroke-opacity: 1; fill: rgb(128, 128, 128); fill-opacity: 0.5;"/><path class="box" d="M362.54,202.54H367.98M362.54,210.47H367.98V198.69H362.54ZM365.26,210.47V222.96M365.26,198.69V196.75M363.9,222.96H366.62M363.9,196.75H366.62" style="vector-effect: non-scaling-stroke; stroke-width: 2px; stroke: rgb(128, 128, 128); stroke-opacity: 1; fill: rgb(128, 128, 128); fill-opacity: 0.5;"/><path class="box" d="M429.11,240.71H434.55M429.11,241.73H434.55V239.61H429.11ZM431.83,241.73V242.27M431.83,239.61V238.89M430.47,242.27H433.19M430.47,238.89H433.19" style="vector-effect: non-scaling-stroke; stroke-width: 2px; stroke: rgb(128, 128, 128); stroke-opacity: 1; fill: rgb(128, 128, 128); fill-opacity: 0.5;"/><g class="points"/><g class="points"/><g class="points"/><g class="points"/><g class="points"/><g class="points"/><g class="points"/><path class="mean" d="M29.68,218.62H35.12m0,0L32.4,221.08L29.68,218.62L32.4,216.16Z" style="fill: none; vector-effect: non-scaling-stroke; stroke-width: 2; stroke-dasharray: 4px, 2px; stroke: rgb(128, 128, 128); stroke-opacity: 1;"/><path class="mean" d="M96.26,211.83H101.69m0,0L98.97,214.77L96.26,211.83L98.97,208.88Z" style="fill: none; vector-effect: non-scaling-stroke; stroke-width: 2; stroke-dasharray: 4px, 2px; stroke: rgb(128, 128, 128); stroke-opacity: 1;"/><path class="mean" d="M162.83,230H168.26m0,0L165.55,233.96L162.83,230L165.55,226.04Z" style="fill: none; vector-effect: non-scaling-stroke; stroke-width: 2; stroke-dasharray: 4px, 2px; stroke: rgb(128, 128, 128); stroke-opacity: 1;"/><path class="mean" d="M229.4,204.25H234.84m0,0L232.12,208.06L229.4,204.25L232.12,200.43Z" style="fill: none; vector-effect: non-scaling-stroke; stroke-width: 2; stroke-dasharray: 4px, 2px; stroke: rgb(128, 128, 128); stroke-opacity: 1;"/><path class="mean" d="M295.97,212.91H301.41m0,0L298.69,216.68L295.97,212.91L298.69,209.13Z" style="fill: none; vector-effect: non-scaling-stroke; stroke-width: 2; stroke-dasharray: 4px, 2px; stroke: rgb(128, 128, 128); stroke-opacity: 1;"/><path class="mean" d="M362.54,206.05H367.98m0,0L365.26,214.92L362.54,206.05L365.26,197.18Z" style="fill: none; vector-effect: non-scaling-stroke; stroke-width: 2; stroke-dasharray: 4px, 2px; stroke: rgb(128, 128, 128); stroke-opacity: 1;"/><path class="mean" d="M429.11,240.6H434.55m0,0L431.83,241.74L429.11,240.6L431.83,239.46Z" style="fill: none; vector-effect: non-scaling-stroke; stroke-width: 2; stroke-dasharray: 4px, 2px; stroke: rgb(128, 128, 128); stroke-opacity: 1;"/></g><g class="trace boxes" style="opacity: 1;"><path class="box" d="M37.45,184.16H42.89M37.45,194.75H42.89V180.19H37.45ZM40.17,194.75V195.22M40.17,180.19V168.95M38.81,195.22H41.53M38.81,168.95H41.53" style="vector-effect: non-scaling-stroke; stroke-width: 2px; stroke: rgb(0, 128, 0); stroke-opacity: 1; fill: rgb(0, 128, 0); fill-opacity: 0.5;"/><path class="box" d="M104.02,204.46H109.46M104.02,223.5H109.46V197.62H104.02ZM106.74,223.5V235.11M106.74,197.62V191.89M105.38,235.11H108.1M105.38,191.89H108.1" style="vector-effect: non-scaling-stroke; stroke-width: 2px; stroke: rgb(0, 128, 0); stroke-opacity: 1; fill: rgb(0, 128, 0); fill-opacity: 0.5;"/><path class="box" d="M170.59,228.53H176.03M170.59,235.92H176.03V223.42H170.59ZM173.31,235.92V237.65M173.31,223.42V218.68M171.95,237.65H174.67M171.95,218.68H174.67" style="vector-effect: non-scaling-stroke; stroke-width: 2px; stroke: rgb(0, 128, 0); stroke-opacity: 1; fill: rgb(0, 128, 0); fill-opacity: 0.5;"/><path class="box" d="M237.17,225.67H242.6M237.17,238.38H242.6V201.41H237.17ZM239.88,238.38V242.17M239.88,201.41V194.99M238.52,242.17H241.24M238.52,194.99H241.24" style="vector-effect: non-scaling-stroke; stroke-width: 2px; stroke: rgb(0, 128, 0); stroke-opacity: 1; fill: rgb(0, 128, 0); fill-opacity: 0.5;"/><path class="box" d="M303.74,219.52H309.17M303.74,231.69H309.17V215.71H303.74ZM306.45,231.69V237.19M306.45,215.71V211.16M305.1,237.19H307.81M305.1,211.16H307.81" style="vector-effect: non-scaling-stroke; stroke-width: 2px; stroke: rgb(0, 128, 0); stroke-opacity: 1; fill: rgb(0, 128, 0); fill-opacity: 0.5;"/><path class="box" d="M370.31,231.56H375.74M370.31,234.91H375.74V194.75H370.31ZM373.03,234.91V235.95M373.03,194.75V171.94M371.67,235.95H374.39M371.67,171.94H374.39" style="vector-effect: non-scaling-stroke; stroke-width: 2px; stroke: rgb(0, 128, 0); stroke-opacity: 1; fill: rgb(0, 128, 0); fill-opacity: 0.5;"/><path class="box" d="M436.88,249.2H442.32M436.88,250.2H442.32V242.22H436.88ZM439.6,250.2V250.23M439.6,242.22V237.54M438.24,250.23H440.96M438.24,237.54H440.96" style="vector-effect: non-scaling-stroke; stroke-width: 2px; stroke: rgb(0, 128, 0); stroke-opacity: 1; fill: rgb(0, 128, 0); fill-opacity: 0.5;"/><g class="points"><path class="point" transform="translate(40.17,224.05)" d="M3,0A3,3 0 1,1 0,-3A3,3 0 0,1 3,0Z" style="opacity: 1; stroke-width: 0px; fill: rgb(0, 128, 0); fill-opacity: 1;"/><path class="point" transform="translate(40.17,155.18)" d="M3,0A3,3 0 1,1 0,-3A3,3 0 0,1 3,0Z" style="opacity: 1; stroke-width: 0px; fill: rgb(0, 128, 0); fill-opacity: 1;"/></g><g class="points"/><g class="points"/><g class="points"><path class="point" transform="translate(239.88,132.22)" d="M3,0A3,3 0 1,1 0,-3A3,3 0 0,1 3,0Z" style="opacity: 1; stroke-width: 0px; fill: rgb(0, 128, 0); fill-opacity: 1;"/></g><g class="points"/><g class="points"/><g class="points"/><path class="mean" d="M37.45,185.75H42.89m0,0L40.17,202.94L37.45,185.75L40.17,168.57Z" style="fill: none; vector-effect: non-scaling-stroke; stroke-width: 2; stroke-dasharray: 4px, 2px; stroke: rgb(0, 128, 0); stroke-opacity: 1;"/><path class="mean" d="M104.02,209.57H109.46m0,0L106.74,224.39L104.02,209.57L106.74,194.75Z" style="fill: none; vector-effect: non-scaling-stroke; stroke-width: 2; stroke-dasharray: 4px, 2px; stroke: rgb(0, 128, 0); stroke-opacity: 1;"/><path class="mean" d="M170.59,228.86H176.03m0,0L173.31,235.5L170.59,228.86L173.31,222.21Z" style="fill: none; vector-effect: non-scaling-stroke; stroke-width: 2; stroke-dasharray: 4px, 2px; stroke: rgb(0, 128, 0); stroke-opacity: 1;"/><path class="mean" d="M237.17,213.51H242.6m0,0L239.88,245.09L237.17,213.51L239.88,181.93Z" style="fill: none; vector-effect: non-scaling-stroke; stroke-width: 2; stroke-dasharray: 4px, 2px; stroke: rgb(0, 128, 0); stroke-opacity: 1;"/><path class="mean" d="M303.74,222.07H309.17m0,0L306.45,231.12L303.74,222.07L306.45,213.01Z" style="fill: none; vector-effect: non-scaling-stroke; stroke-width: 2; stroke-dasharray: 4px, 2px; stroke: rgb(0, 128, 0); stroke-opacity: 1;"/><path class="mean" d="M370.31,217.29H375.74m0,0L373.03,239.51L370.31,217.29L373.03,195.08Z" style="fill: none; vector-effect: non-scaling-stroke; stroke-width: 2; stroke-dasharray: 4px, 2px; stroke: rgb(0, 128, 0); stroke-opacity: 1;"/><path class="mean" d="M436.88,247.2H442.32m0,0L439.6,251.67L436.88,247.2L439.6,242.73Z" style="fill: none; vector-effect: non-scaling-stroke; stroke-width: 2; stroke-dasharray: 4px, 2px; stroke: rgb(0, 128, 0); stroke-opacity: 1;"/></g><g class="trace boxes" style="opacity: 1;"><path class="box" d="M45.22,235.4H50.65M45.22,237.32H50.65V231.64H45.22ZM47.94,237.32V239.56M47.94,231.64V227.05M46.58,239.56H49.29M46.58,227.05H49.29" style="vector-effect: non-scaling-stroke; stroke-width: 2px; stroke: rgb(165, 42, 42); stroke-opacity: 1; fill: rgb(165, 42, 42); fill-opacity: 0.5;"/><path class="box" d="M111.79,230.14H117.23M111.79,238.63H117.23V227.11H111.79ZM114.51,238.63V241.71M114.51,227.11V218.12M113.15,241.71H115.87M113.15,218.12H115.87" style="vector-effect: non-scaling-stroke; stroke-width: 2px; stroke: rgb(165, 42, 42); stroke-opacity: 1; fill: rgb(165, 42, 42); fill-opacity: 0.5;"/><path class="box" d="M178.36,212.58H183.8M178.36,231.53H183.8V209.89H178.36ZM181.08,231.53V239.41M181.08,209.89V207.79M179.72,239.41H182.44M179.72,207.79H182.44" style="vector-effect: non-scaling-stroke; stroke-width: 2px; stroke: rgb(165, 42, 42); stroke-opacity: 1; fill: rgb(165, 42, 42); fill-opacity: 0.5;"/><path class="box" d="M244.93,201.38H250.37M244.93,220.18H250.37V188.53H244.93ZM247.65,220.18V232.27M247.65,188.53V186.35M246.29,232.27H249.01M246.29,186.35H249.01" style="vector-effect: non-scaling-stroke; stroke-width: 2px; stroke: rgb(165, 42, 42); stroke-opacity: 1; fill: rgb(165, 42, 42); fill-opacity: 0.5;"/><path class="box" d="M311.5,223.75H316.94M311.5,228.77H316.94V208.95H311.5ZM314.22,228.77V229.45M314.22,208.95V193.93M312.86,229.45H315.58M312.86,193.93H315.58" style="vector-effect: non-scaling-stroke; stroke-width: 2px; stroke: rgb(165, 42, 42); stroke-opacity: 1; fill: rgb(165, 42, 42); fill-opacity: 0.5;"/><path class="box" d="M378.07,219.16H383.51M378.07,224.99H383.51V211.76H378.07ZM380.79,224.99V227.97M380.79,211.76V200.9M379.43,227.97H382.15M379.43,200.9H382.15" style="vector-effect: non-scaling-stroke; stroke-width: 2px; stroke: rgb(165, 42, 42); stroke-opacity: 1; fill: rgb(165, 42, 42); fill-opacity: 0.5;"/><path class="box" d="M444.65,208.89H450.08M444.65,218.64H450.08V179.25H444.65ZM447.36,218.64V220.29M447.36,179.25V158.4M446.01,220.29H448.72M446.01,158.4H448.72" style="vector-effect: non-scaling-stroke; stroke-width: 2px; stroke: rgb(165, 42, 42); stroke-opacity: 1; fill: rgb(165, 42, 42); fill-opacity: 0.5;"/><g class="points"/><g class="points"/><g class="points"/><g class="points"/><g class="points"/><g class="points"/><g class="points"/><path class="mean" d="M45.22,234.39H50.65m0,0L47.94,238.12L45.22,234.39L47.94,230.65Z" style="fill: none; vector-effect: non-scaling-stroke; stroke-width: 2; stroke-dasharray: 4px, 2px; stroke: rgb(165, 42, 42); stroke-opacity: 1;"/><path class="mean" d="M111.79,231.52H117.23m0,0L114.51,238.47L111.79,231.52L114.51,224.56Z" style="fill: none; vector-effect: non-scaling-stroke; stroke-width: 2; stroke-dasharray: 4px, 2px; stroke: rgb(165, 42, 42); stroke-opacity: 1;"/><path class="mean" d="M178.36,219.12H183.8m0,0L181.08,230.55L178.36,219.12L181.08,207.69Z" style="fill: none; vector-effect: non-scaling-stroke; stroke-width: 2; stroke-dasharray: 4px, 2px; stroke: rgb(165, 42, 42); stroke-opacity: 1;"/><path class="mean" d="M244.93,205.13H250.37m0,0L247.65,222.86L244.93,205.13L247.65,187.41Z" style="fill: none; vector-effect: non-scaling-stroke; stroke-width: 2; stroke-dasharray: 4px, 2px; stroke: rgb(165, 42, 42); stroke-opacity: 1;"/><path class="mean" d="M311.5,218.4H316.94m0,0L314.22,231.22L311.5,218.4L314.22,205.58Z" style="fill: none; vector-effect: non-scaling-stroke; stroke-width: 2; stroke-dasharray: 4px, 2px; stroke: rgb(165, 42, 42); stroke-opacity: 1;"/><path class="mean" d="M378.07,217.37H383.51m0,0L380.79,225.17L378.07,217.37L380.79,209.58Z" style="fill: none; vector-effect: non-scaling-stroke; stroke-width: 2; stroke-dasharray: 4px, 2px; stroke: rgb(165, 42, 42); stroke-opacity: 1;"/><path class="mean" d="M444.65,198.32H450.08m0,0L447.36,220.61L444.65,198.32L447.36,176.03Z" style="fill: none; vector-effect: non-scaling-stroke; stroke-width: 2; stroke-dasharray: 4px, 2px; stroke: rgb(165, 42, 42); stroke-opacity: 1;"/></g><g class="trace boxes" style="opacity: 1;"><path class="box" d="M52.98,250.25H58.42M52.98,250.25H58.42V250.23H52.98ZM55.7,250.25V250.25M55.7,250.23V250.23M54.34,250.25H57.06M54.34,250.23H57.06" style="vector-effect: non-scaling-stroke; stroke-width: 2px; stroke: rgb(95, 158, 160); stroke-opacity: 1; fill: rgb(95, 158, 160); fill-opacity: 0.5;"/><path class="box" d="M119.56,250.25H124.99M119.56,250.25H124.99V250.06H119.56ZM122.27,250.25V250.25M122.27,250.06V249.9M120.91,250.25H123.63M120.91,249.9H123.63" style="vector-effect: non-scaling-stroke; stroke-width: 2px; stroke: rgb(95, 158, 160); stroke-opacity: 1; fill: rgb(95, 158, 160); fill-opacity: 0.5;"/><path class="box" d="M186.13,241.62H191.56M186.13,247.8H191.56V235.07H186.13ZM188.85,247.8V250.25M188.85,235.07V223.44M187.49,250.25H190.2M187.49,223.44H190.2" style="vector-effect: non-scaling-stroke; stroke-width: 2px; stroke: rgb(95, 158, 160); stroke-opacity: 1; fill: rgb(95, 158, 160); fill-opacity: 0.5;"/><path class="box" d="M252.7,250.25H258.14M252.7,250.25H258.14V249.53H252.7ZM255.42,250.25V250.25M255.42,249.53V249.29M254.06,250.25H256.78M254.06,249.29H256.78" style="vector-effect: non-scaling-stroke; stroke-width: 2px; stroke: rgb(95, 158, 160); stroke-opacity: 1; fill: rgb(95, 158, 160); fill-opacity: 0.5;"/><path class="box" d="M319.27,250.25H324.71M319.27,250.25H324.71V250.24H319.27ZM321.99,250.25V250.25M321.99,250.24V250.23M320.63,250.25H323.35M320.63,250.23H323.35" style="vector-effect: non-scaling-stroke; stroke-width: 2px; stroke: rgb(95, 158, 160); stroke-opacity: 1; fill: rgb(95, 158, 160); fill-opacity: 0.5;"/><path class="box" d="M385.84,250.25H391.28M385.84,250.25H391.28V250.25H385.84ZM388.56,250.25V250.25M388.56,250.25V250.25M387.2,250.25H389.92M387.2,250.25H389.92" style="vector-effect: non-scaling-stroke; stroke-width: 2px; stroke: rgb(95, 158, 160); stroke-opacity: 1; fill: rgb(95, 158, 160); fill-opacity: 0.5;"/><path class="box" d="M452.41,36.21H457.85M452.41,40.3H457.85V25.2H452.41ZM455.13,40.3V49.62M455.13,25.2V22.75M453.77,49.62H456.49M453.77,22.75H456.49" style="vector-effect: non-scaling-stroke; stroke-width: 2px; stroke: rgb(95, 158, 160); stroke-opacity: 1; fill: rgb(95, 158, 160); fill-opacity: 0.5;"/><g class="points"><path class="point" transform="translate(55.7,250.18)" d="M3,0A3,3 0 1,1 0,-3A3,3 0 0,1 3,0Z" style="opacity: 1; stroke-width: 0px; fill: rgb(95, 158, 160); fill-opacity: 1;"/><path class="point" transform="translate(55.7,250.14)" d="M3,0A3,3 0 1,1 0,-3A3,3 0 0,1 3,0Z" style="opacity: 1; stroke-width: 0px; fill: rgb(95, 158, 160); fill-opacity: 1;"/></g><g class="points"><path class="point" transform="translate(122.27,249.49)" d="M3,0A3,3 0 1,1 0,-3A3,3 0 0,1 3,0Z" style="opacity: 1; stroke-width: 0px; fill: rgb(95, 158, 160); fill-opacity: 1;"/></g><g class="points"/><g class="points"><path class="point" transform="translate(255.42,248.31)" d="M3,0A3,3 0 1,1 0,-3A3,3 0 0,1 3,0Z" style="opacity: 1; stroke-width: 0px; fill: rgb(95, 158, 160); fill-opacity: 1;"/></g><g class="points"><path class="point" transform="translate(321.99,249.62)" d="M3,0A3,3 0 1,1 0,-3A3,3 0 0,1 3,0Z" style="opacity: 1; stroke-width: 0px; fill: rgb(95, 158, 160); fill-opacity: 1;"/></g><g class="points"><path class="point" transform="translate(388.56,248.53)" d="M3,0A3,3 0 1,1 0,-3A3,3 0 0,1 3,0Z" style="opacity: 1; stroke-width: 0px; fill: rgb(95, 158, 160); fill-opacity: 1;"/><path class="point" transform="translate(388.56,243.38)" d="M3,0A3,3 0 1,1 0,-3A3,3 0 0,1 3,0Z" style="opacity: 1; stroke-width: 0px; fill: rgb(95, 158, 160); fill-opacity: 1;"/></g><g class="points"/><path class="mean" d="M52.98,250.23H58.42m0,0L55.7,250.27L52.98,250.23L55.7,250.19Z" style="fill: none; vector-effect: non-scaling-stroke; stroke-width: 2; stroke-dasharray: 4px, 2px; stroke: rgb(95, 158, 160); stroke-opacity: 1;"/><path class="mean" d="M119.56,250.11H124.99m0,0L122.27,250.35L119.56,250.11L122.27,249.88Z" style="fill: none; vector-effect: non-scaling-stroke; stroke-width: 2; stroke-dasharray: 4px, 2px; stroke: rgb(95, 158, 160); stroke-opacity: 1;"/><path class="mean" d="M186.13,239.93H191.56m0,0L188.85,249.04L186.13,239.93L188.85,230.82Z" style="fill: none; vector-effect: non-scaling-stroke; stroke-width: 2; stroke-dasharray: 4px, 2px; stroke: rgb(95, 158, 160); stroke-opacity: 1;"/><path class="mean" d="M252.7,249.89H258.14m0,0L255.42,250.51L252.7,249.89L255.42,249.26Z" style="fill: none; vector-effect: non-scaling-stroke; stroke-width: 2; stroke-dasharray: 4px, 2px; stroke: rgb(95, 158, 160); stroke-opacity: 1;"/><path class="mean" d="M319.27,250.18H324.71m0,0L321.99,250.37L319.27,250.18L321.99,250Z" style="fill: none; vector-effect: non-scaling-stroke; stroke-width: 2; stroke-dasharray: 4px, 2px; stroke: rgb(95, 158, 160); stroke-opacity: 1;"/><path class="mean" d="M385.84,249.39H391.28m0,0L388.56,251.46L385.84,249.39L388.56,247.32Z" style="fill: none; vector-effect: non-scaling-stroke; stroke-width: 2; stroke-dasharray: 4px, 2px; stroke: rgb(95, 158, 160); stroke-opacity: 1;"/><path class="mean" d="M452.41,34.51H457.85m0,0L455.13,43.81L452.41,34.51L455.13,25.22Z" style="fill: none; vector-effect: non-scaling-stroke; stroke-width: 2; stroke-dasharray: 4px, 2px; stroke: rgb(95, 158, 160); stroke-opacity: 1;"/></g></g></g><g class="overplot"/><path class="xlines-above crisp" d="M79,373.5H552" style="fill: none; stroke-width: 1px; stroke: rgb(255, 255, 255); stroke-opacity: 1;"/><path class="ylines-above crisp" d="M79.5,100V373" style="fill: none; stroke-width: 1px; stroke: rgb(255, 255, 255); stroke-opacity: 1;"/><g class="overlines-above"/><g class="xaxislayer-above"><g class="xtick"><text text-anchor="start" x="0" y="388.4" transform="translate(116.28999999999999,0) rotate(30,0,382.4)" style="font-family: 'Open Sans', verdana, arial, sans-serif; font-size: 12px; fill: rgb(42, 63, 95); fill-opacity: 1; white-space: pre;">&#60;START> - role 0</text></g><g class="xtick"><text text-anchor="start" x="0" y="388.4" transform="translate(182.86,0) rotate(30,0,382.4)" style="font-family: 'Open Sans', verdana, arial, sans-serif; font-size: 12px; fill: rgb(42, 63, 95); fill-opacity: 1; white-space: pre;">Assign seriousness - role 1</text></g><g class="xtick"><text text-anchor="start" x="0" y="388.4" transform="translate(249.43,0) rotate(30,0,382.4)" style="font-family: 'Open Sans', verdana, arial, sans-serif; font-size: 12px; fill: rgb(42, 63, 95); fill-opacity: 1; white-space: pre;">Take in charge ticket - role 1</text></g><g class="xtick"><text text-anchor="start" x="0" y="388.4" transform="translate(316,0) rotate(30,0,382.4)" style="font-family: 'Open Sans', verdana, arial, sans-serif; font-size: 12px; fill: rgb(42, 63, 95); fill-opacity: 1; white-space: pre;">Wait - role 1</text></g><g class="xtick"><text text-anchor="start" x="0" y="388.4" transform="translate(382.57,0) rotate(30,0,382.4)" style="font-family: 'Open Sans', verdana, arial, sans-serif; font-size: 12px; fill: rgb(42, 63, 95); fill-opacity: 1; white-space: pre;">Take in charge ticket - role 1 (1)</text></g><g class="xtick"><text text-anchor="start" x="0" y="388.4" transform="translate(449.14,0) rotate(30,0,382.4)" style="font-family: 'Open Sans', verdana, arial, sans-serif; font-size: 12px; fill: rgb(42, 63, 95); fill-opacity: 1; white-space: pre;">Resolve ticket - role 1</text></g><g class="xtick"><text text-anchor="start" x="0" y="388.4" transform="translate(515.71,0) rotate(30,0,382.4)" style="font-family: 'Open Sans', verdana, arial, sans-serif; font-size: 12px; fill: rgb(42, 63, 95); fill-opacity: 1; white-space: pre;">Take in charge ticket - role 1 (2)</text></g></g><g class="yaxislayer-above"><g class="ytick"><text text-anchor="end" x="76.6" y="4.199999999999999" transform="translate(0,350.25)" style="font-family: 'Open Sans', verdana, arial, sans-serif; font-size: 12px; fill: rgb(42, 63, 95); fill-opacity: 1; white-space: pre;">0</text></g><g class="ytick"><text text-anchor="end" x="76.6" y="4.199999999999999" transform="translate(0,304.75)" style="font-family: 'Open Sans', verdana, arial, sans-serif; font-size: 12px; fill: rgb(42, 63, 95); fill-opacity: 1; white-space: pre;">0.2</text></g><g class="ytick"><text text-anchor="end" x="76.6" y="4.199999999999999" transform="translate(0,259.25)" style="font-family: 'Open Sans', verdana, arial, sans-serif; font-size: 12px; fill: rgb(42, 63, 95); fill-opacity: 1; white-space: pre;">0.4</text></g><g class="ytick"><text text-anchor="end" x="76.6" y="4.199999999999999" transform="translate(0,213.75)" style="font-family: 'Open Sans', verdana, arial, sans-serif; font-size: 12px; fill: rgb(42, 63, 95); fill-opacity: 1; white-space: pre;">0.6</text></g><g class="ytick"><text text-anchor="end" x="76.6" y="4.199999999999999" transform="translate(0,168.25)" style="font-family: 'Open Sans', verdana, arial, sans-serif; font-size: 12px; fill: rgb(42, 63, 95); fill-opacity: 1; white-space: pre;">0.8</text></g><g class="ytick"><text text-anchor="end" x="76.6" y="4.199999999999999" transform="translate(0,122.75)" style="font-family: 'Open Sans', verdana, arial, sans-serif; font-size: 12px; fill: rgb(42, 63, 95); fill-opacity: 1; white-space: pre;">1</text></g></g><g class="overaxes-above"/></g></g><g class="polarlayer"/><g class="ternarylayer"/><g class="geolayer"/><g class="funnelarealayer"/><g class="pielayer"/><g class="treemaplayer"/><g class="sunburstlayer"/><g class="glimages"/><defs id="topdefs-f33bd2"><g class="clips"/><clipPath id="legendf33bd2"><rect width="83" height="124" x="0" y="0"/></clipPath></defs><g class="layer-above"><g class="imagelayer"/><g class="shapelayer"/></g><g class="infolayer"><g class="legend" pointer-events="all" transform="translate(561.44, 100)"><rect class="bg" shape-rendering="crispEdges" width="83" height="124" x="0" y="0" style="stroke: rgb(68, 68, 68); stroke-opacity: 1; fill: rgb(255, 255, 255); fill-opacity: 1; stroke-width: 0px;"/><g class="scrollbox" transform="translate(0, 0)" clip-path="url('#legendf33bd2')"><g class="groups"><g class="traces" transform="translate(0, 14.5)" style="opacity: 1;"><text class="legendtext user-select-none" text-anchor="start" x="40" y="4.680000000000001" style="font-family: 'Open Sans', verdana, arial, sans-serif; font-size: 12px; fill: rgb(42, 63, 95); fill-opacity: 1; white-space: pre;">head1</text><g class="layers" style="opacity: 1;"><g class="legendfill"/><g class="legendlines"/><g class="legendsymbols"><g class="legendpoints"><path class="legendbox" d="M6,6H-6V-6H6Z" transform="translate(20,0)" style="stroke-width: 2px; fill: rgb(255, 0, 0); fill-opacity: 0.5; stroke: rgb(255, 0, 0); stroke-opacity: 1;"/></g></g></g><rect class="legendtoggle" pointer-events="all" x="0" y="-9.5" width="77.4375" height="19" style="cursor: pointer; fill: rgb(0, 0, 0); fill-opacity: 0;"/></g><g class="traces" transform="translate(0, 33.5)" style="opacity: 1;"><text class="legendtext user-select-none" text-anchor="start" x="40" y="4.680000000000001" style="font-family: 'Open Sans', verdana, arial, sans-serif; font-size: 12px; fill: rgb(42, 63, 95); fill-opacity: 1; white-space: pre;">head2</text><g class="layers" style="opacity: 1;"><g class="legendfill"/><g class="legendlines"/><g class="legendsymbols"><g class="legendpoints"><path class="legendbox" d="M6,6H-6V-6H6Z" transform="translate(20,0)" style="stroke-width: 2px; fill: rgb(0, 0, 255); fill-opacity: 0.5; stroke: rgb(0, 0, 255); stroke-opacity: 1;"/></g></g></g><rect class="legendtoggle" pointer-events="all" x="0" y="-9.5" width="77.4375" height="19" style="cursor: pointer; fill: rgb(0, 0, 0); fill-opacity: 0;"/></g><g class="traces" transform="translate(0, 52.5)" style="opacity: 1;"><text class="legendtext user-select-none" text-anchor="start" x="40" y="4.680000000000001" style="font-family: 'Open Sans', verdana, arial, sans-serif; font-size: 12px; fill: rgb(42, 63, 95); fill-opacity: 1; white-space: pre;">head3</text><g class="layers" style="opacity: 1;"><g class="legendfill"/><g class="legendlines"/><g class="legendsymbols"><g class="legendpoints"><path class="legendbox" d="M6,6H-6V-6H6Z" transform="translate(20,0)" style="stroke-width: 2px; fill: rgb(128, 128, 128); fill-opacity: 0.5; stroke: rgb(128, 128, 128); stroke-opacity: 1;"/></g></g></g><rect class="legendtoggle" pointer-events="all" x="0" y="-9.5" width="77.4375" height="19" style="cursor: pointer; fill: rgb(0, 0, 0); fill-opacity: 0;"/></g><g class="traces" transform="translate(0, 71.5)" style="opacity: 1;"><text class="legendtext user-select-none" text-anchor="start" x="40" y="4.680000000000001" style="font-family: 'Open Sans', verdana, arial, sans-serif; font-size: 12px; fill: rgb(42, 63, 95); fill-opacity: 1; white-space: pre;">head4</text><g class="layers" style="opacity: 1;"><g class="legendfill"/><g class="legendlines"/><g class="legendsymbols"><g class="legendpoints"><path class="legendbox" d="M6,6H-6V-6H6Z" transform="translate(20,0)" style="stroke-width: 2px; fill: rgb(0, 128, 0); fill-opacity: 0.5; stroke: rgb(0, 128, 0); stroke-opacity: 1;"/></g></g></g><rect class="legendtoggle" pointer-events="all" x="0" y="-9.5" width="77.4375" height="19" style="cursor: pointer; fill: rgb(0, 0, 0); fill-opacity: 0;"/></g><g class="traces" transform="translate(0, 90.5)" style="opacity: 1;"><text class="legendtext user-select-none" text-anchor="start" x="40" y="4.680000000000001" style="font-family: 'Open Sans', verdana, arial, sans-serif; font-size: 12px; fill: rgb(42, 63, 95); fill-opacity: 1; white-space: pre;">head5</text><g class="layers" style="opacity: 1;"><g class="legendfill"/><g class="legendlines"/><g class="legendsymbols"><g class="legendpoints"><path class="legendbox" d="M6,6H-6V-6H6Z" transform="translate(20,0)" style="stroke-width: 2px; fill: rgb(165, 42, 42); fill-opacity: 0.5; stroke: rgb(165, 42, 42); stroke-opacity: 1;"/></g></g></g><rect class="legendtoggle" pointer-events="all" x="0" y="-9.5" width="77.4375" height="19" style="cursor: pointer; fill: rgb(0, 0, 0); fill-opacity: 0;"/></g><g class="traces" transform="translate(0, 109.5)" style="opacity: 1;"><text class="legendtext user-select-none" text-anchor="start" x="40" y="4.680000000000001" style="font-family: 'Open Sans', verdana, arial, sans-serif; font-size: 12px; fill: rgb(42, 63, 95); fill-opacity: 1; white-space: pre;">head6</text><g class="layers" style="opacity: 1;"><g class="legendfill"/><g class="legendlines"/><g class="legendsymbols"><g class="legendpoints"><path class="legendbox" d="M6,6H-6V-6H6Z" transform="translate(20,0)" style="stroke-width: 2px; fill: rgb(95, 158, 160); fill-opacity: 0.5; stroke: rgb(95, 158, 160); stroke-opacity: 1;"/></g></g></g><rect class="legendtoggle" pointer-events="all" x="0" y="-9.5" width="77.4375" height="19" style="cursor: pointer; fill: rgb(0, 0, 0); fill-opacity: 0;"/></g></g></g><rect class="scrollbar" rx="20" ry="3" width="0" height="0" x="0" y="0" style="fill: rgb(128, 139, 164); fill-opacity: 1;"/></g><g class="g-gtitle"/><g class="g-xtitle"/><g class="g-ytitle"/></g></svg>