<?xml version="1.0" encoding="UTF-8" standalone="no"?>
<svg
   xmlns:dc="http://purl.org/dc/elements/1.1/"
   xmlns:cc="http://creativecommons.org/ns#"
   xmlns:rdf="http://www.w3.org/1999/02/22-rdf-syntax-ns#"
   xmlns:svg="http://www.w3.org/2000/svg"
   xmlns="http://www.w3.org/2000/svg"
   xmlns:sodipodi="http://sodipodi.sourceforge.net/DTD/sodipodi-0.dtd"
   xmlns:inkscape="http://www.inkscape.org/namespaces/inkscape"
   class="main-svg"
   width="630.52032"
   height="384.64987"
   viewBox="0 0 630.52032 384.64987"
   version="1.1"
   id="svg25028"
   sodipodi:docname="att-weight-Helpdesk-caseCase135-step-4.svg"
   inkscape:version="0.92.5 (2060ec1f9f, 2020-04-08)">
  <metadata
     id="metadata25032">
    <rdf:RDF>
      <cc:Work
         rdf:about="">
        <dc:format>image/svg+xml</dc:format>
        <dc:type
           rdf:resource="http://purl.org/dc/dcmitype/StillImage" />
        <dc:title></dc:title>
      </cc:Work>
    </rdf:RDF>
  </metadata>
  <sodipodi:namedview
     pagecolor="#ffffff"
     bordercolor="#666666"
     borderopacity="1"
     objecttolerance="10"
     gridtolerance="10"
     guidetolerance="10"
     inkscape:pageopacity="0"
     inkscape:pageshadow="2"
     inkscape:window-width="1848"
     inkscape:window-height="1016"
     id="namedview25030"
     showgrid="false"
     fit-margin-top="0"
     fit-margin-left="0"
     fit-margin-right="0"
     fit-margin-bottom="0"
     inkscape:zoom="2.6700352"
     inkscape:cx="205.19911"
     inkscape:cy="115.67921"
     inkscape:window-x="72"
     inkscape:window-y="27"
     inkscape:window-maximized="1"
     inkscape:current-layer="svg25028" />
  <rect
     x="-57.779686"
     y="-100"
     width="700"
     height="500"
     style="fill:#ffffff;fill-opacity:1"
     id="rect24541" />
  <defs
     id="defs-57a61d">
    <g
       class="clips"
       id="g24555">
      <clipPath
         id="clip57a61dxyplot"
         class="plotclip">
        <rect
           width="515"
           height="284"
           id="rect24543"
           x="0"
           y="0" />
      </clipPath>
      <clipPath
         class="axesclip"
         id="clip57a61dx">
        <rect
           x="80"
           y="0"
           width="515"
           height="500"
           id="rect24546" />
      </clipPath>
      <clipPath
         class="axesclip"
         id="clip57a61dy">
        <rect
           x="0"
           y="100"
           width="700"
           height="284"
           id="rect24549" />
      </clipPath>
      <clipPath
         class="axesclip"
         id="clip57a61dxy">
        <rect
           x="80"
           y="100"
           width="515"
           height="284"
           id="rect24552" />
      </clipPath>
    </g>
    <g
       class="gradients"
       id="g24557" />
  </defs>
  <g
     class="bglayer"
     id="g24562"
     transform="translate(-57.779686,-100)">
    <rect
       class="bg"
       x="80"
       y="100"
       width="515"
       height="284"
       style="fill:#e5ecf6;fill-opacity:1;stroke-width:0"
       id="rect24560" />
  </g>
  <g
     class="layer-below"
     id="g24568"
     transform="translate(-57.779686,-100)">
    <g
       class="imagelayer"
       id="g24564" />
    <g
       class="shapelayer"
       id="g24566" />
  </g>
  <g
     class="polarlayer"
     id="g24874"
     transform="translate(-57.779686,-100)" />
  <g
     class="ternarylayer"
     id="g24876"
     transform="translate(-57.779686,-100)" />
  <g
     class="geolayer"
     id="g24878"
     transform="translate(-57.779686,-100)" />
  <g
     class="funnelarealayer"
     id="g24880"
     transform="translate(-57.779686,-100)" />
  <g
     class="pielayer"
     id="g24882"
     transform="translate(-57.779686,-100)" />
  <g
     class="treemaplayer"
     id="g24884"
     transform="translate(-57.779686,-100)" />
  <g
     class="sunburstlayer"
     id="g24886"
     transform="translate(-57.779686,-100)" />
  <g
     class="glimages"
     id="g24888"
     transform="translate(-57.779686,-100)" />
  <defs
     id="topdefs-57a61d">
    <g
       class="clips"
       id="g24890" />
    <clipPath
       id="legend57a61d">
      <rect
         width="83"
         height="124"
         x="0"
         y="0"
         id="rect24892" />
    </clipPath>
  </defs>
  <g
     class="layer-above"
     id="g24900"
     transform="translate(-57.779686,-100)">
    <g
       class="imagelayer"
       id="g24896" />
    <g
       class="shapelayer"
       id="g24898" />
  </g>
  <g
     id="g24870"
     class="subplot xy"
     transform="translate(-57.779686,-100)">
    <g
       id="g24574"
       class="layer-subplot">
      <g
         id="g24570"
         class="shapelayer" />
      <g
         id="g24572"
         class="imagelayer" />
    </g>
    <g
       id="g24598"
       class="gridlayer">
      <g
         id="g24584"
         class="x">
        <path
           id="path24576"
           style="stroke:#ffffff;stroke-width:1px;stroke-opacity:1"
           d="M 0,100 V 384"
           transform="translate(146.63)"
           class="xgrid crisp"
           inkscape:connector-curvature="0" />
        <path
           id="path24578"
           style="stroke:#ffffff;stroke-width:1px;stroke-opacity:1"
           d="M 0,100 V 384"
           transform="translate(273.88)"
           class="xgrid crisp"
           inkscape:connector-curvature="0" />
        <path
           id="path24580"
           style="stroke:#ffffff;stroke-width:1px;stroke-opacity:1"
           d="M 0,100 V 384"
           transform="translate(401.13)"
           class="xgrid crisp"
           inkscape:connector-curvature="0" />
        <path
           id="path24582"
           style="stroke:#ffffff;stroke-width:1px;stroke-opacity:1"
           d="M 0,100 V 384"
           transform="translate(528.37)"
           class="xgrid crisp"
           inkscape:connector-curvature="0" />
      </g>
      <g
         id="g24596"
         class="y">
        <path
           id="path24586"
           style="stroke:#ffffff;stroke-width:1px;stroke-opacity:1"
           d="M 80,0 H 595"
           transform="translate(0,313)"
           class="ygrid crisp"
           inkscape:connector-curvature="0" />
        <path
           id="path24588"
           style="stroke:#ffffff;stroke-width:1px;stroke-opacity:1"
           d="M 80,0 H 595"
           transform="translate(0,265.67)"
           class="ygrid crisp"
           inkscape:connector-curvature="0" />
        <path
           id="path24590"
           style="stroke:#ffffff;stroke-width:1px;stroke-opacity:1"
           d="M 80,0 H 595"
           transform="translate(0,218.33)"
           class="ygrid crisp"
           inkscape:connector-curvature="0" />
        <path
           id="path24592"
           style="stroke:#ffffff;stroke-width:1px;stroke-opacity:1"
           d="M 80,0 H 595"
           transform="translate(0,171)"
           class="ygrid crisp"
           inkscape:connector-curvature="0" />
        <path
           id="path24594"
           style="stroke:#ffffff;stroke-width:1px;stroke-opacity:1"
           d="M 80,0 H 595"
           transform="translate(0,123.67)"
           class="ygrid crisp"
           inkscape:connector-curvature="0" />
      </g>
    </g>
    <g
       id="g24602"
       class="zerolinelayer">
      <path
         id="path24600"
         style="stroke:#ffffff;stroke-width:2px;stroke-opacity:1"
         d="M 80,0 H 595"
         transform="translate(0,360.33)"
         class="yzl zl crisp"
         inkscape:connector-curvature="0" />
    </g>
    <path
       id="path24604"
       class="xlines-below"
       d=""
       inkscape:connector-curvature="0" />
    <path
       id="path24606"
       class="ylines-below"
       d=""
       inkscape:connector-curvature="0" />
    <g
       id="g24608"
       class="overlines-below" />
    <g
       id="g24610"
       class="xaxislayer-below" />
    <g
       id="g24612"
       class="yaxislayer-below" />
    <g
       id="g24614"
       class="overaxes-below" />
    <g
       id="g24814"
       clip-path="url(#clip57a61dxyplot)"
       transform="translate(80,100)"
       class="plot">
      <g
         id="g24812"
         class="boxlayer mlayer">
        <g
           id="g24648"
           style="opacity:1"
           class="trace boxes">
          <path
             id="path24616"
             style="vector-effect:non-scaling-stroke;fill:#ff0000;fill-opacity:0.5;stroke:#ff0000;stroke-width:2px;stroke-opacity:1"
             d="m 24.31,259.54 h 10.4 m -10.4,0.41 h 10.4 v -0.77 h -10.4 z m 5.2,0 v 0.12 m 0,-0.89 v -0.33 m -2.6,1.22 h 5.2 m -5.2,-1.22 h 5.2"
             class="box"
             inkscape:connector-curvature="0" />
          <path
             id="path24618"
             style="vector-effect:non-scaling-stroke;fill:#ff0000;fill-opacity:0.5;stroke:#ff0000;stroke-width:2px;stroke-opacity:1"
             d="m 151.56,199.01 h 10.4 m -10.4,18.35 h 10.4 v -43.18 h -10.4 z m 5.2,0 v 15 m 0,-58.18 V 154 m -2.6,78.36 h 5.2 M 154.16,154 h 5.2"
             class="box"
             inkscape:connector-curvature="0" />
          <path
             id="path24620"
             style="vector-effect:non-scaling-stroke;fill:#ff0000;fill-opacity:0.5;stroke:#ff0000;stroke-width:2px;stroke-opacity:1"
             d="m 278.81,167.63 h 10.4 m -10.4,25.31 h 10.4 v -31.45 h -10.4 z m 5.2,0 v 22.24 m 0,-53.69 v -15.58 m -2.6,69.27 h 5.2 m -5.2,-69.27 h 5.2"
             class="box"
             inkscape:connector-curvature="0" />
          <path
             id="path24622"
             style="vector-effect:non-scaling-stroke;fill:#ff0000;fill-opacity:0.5;stroke:#ff0000;stroke-width:2px;stroke-opacity:1"
             d="m 406.06,182.34 h 10.4 m -10.4,16.21 h 10.4 v -28.78 h -10.4 z m 5.2,0 v 7.5 m 0,-36.28 v -20.71 m -2.6,56.99 h 5.2 m -5.2,-56.99 h 5.2"
             class="box"
             inkscape:connector-curvature="0" />
          <g
             id="g24626"
             class="points">
            <path
               id="path24624"
               style="opacity:1;fill:#ff0000;fill-opacity:1;stroke-width:0px"
               d="M 3,0 A 3,3 0 1 1 0,-3 3,3 0 0 1 3,0 Z"
               transform="translate(29.51,251.42)"
               class="point"
               inkscape:connector-curvature="0" />
          </g>
          <g
             id="g24630"
             class="points">
            <path
               id="path24628"
               style="opacity:1;fill:#ff0000;fill-opacity:1;stroke-width:0px"
               d="M 3,0 A 3,3 0 1 1 0,-3 3,3 0 0 1 3,0 Z"
               transform="translate(156.76,103)"
               class="point"
               inkscape:connector-curvature="0" />
          </g>
          <g
             id="g24634"
             class="points">
            <path
               id="path24632"
               style="opacity:1;fill:#ff0000;fill-opacity:1;stroke-width:0px"
               d="M 3,0 A 3,3 0 1 1 0,-3 3,3 0 0 1 3,0 Z"
               transform="translate(284.01,106.19)"
               class="point"
               inkscape:connector-curvature="0" />
          </g>
          <g
             id="g24638"
             class="points">
            <path
               id="path24636"
               style="opacity:1;fill:#ff0000;fill-opacity:1;stroke-width:0px"
               d="M 3,0 A 3,3 0 1 1 0,-3 3,3 0 0 1 3,0 Z"
               transform="translate(411.26,244.21)"
               class="point"
               inkscape:connector-curvature="0" />
          </g>
          <path
             id="path24640"
             style="vector-effect:non-scaling-stroke;fill:none;stroke:#ff0000;stroke-width:2;stroke-dasharray:4;stroke-opacity:1"
             d="m 24.31,258.77 h 10.4 m 0,0 -5.2,2.48 -5.2,-2.48 5.2,-2.49 z"
             class="mean"
             inkscape:connector-curvature="0" />
          <path
             id="path24642"
             style="vector-effect:non-scaling-stroke;fill:none;stroke:#ff0000;stroke-width:2;stroke-dasharray:4;stroke-opacity:1"
             d="m 151.56,190.91 h 10.4 m 0,0 -5.2,37.39 -5.2,-37.39 5.2,-37.39 z"
             class="mean"
             inkscape:connector-curvature="0" />
          <path
             id="path24644"
             style="vector-effect:non-scaling-stroke;fill:none;stroke:#ff0000;stroke-width:2;stroke-dasharray:4;stroke-opacity:1"
             d="m 278.81,169.32 h 10.4 m 0,0 -5.2,28.47 -5.2,-28.47 5.2,-28.48 z"
             class="mean"
             inkscape:connector-curvature="0" />
          <path
             id="path24646"
             style="vector-effect:non-scaling-stroke;fill:none;stroke:#ff0000;stroke-width:2;stroke-dasharray:4;stroke-opacity:1"
             d="m 406.06,185.67 h 10.4 m 0,0 -5.2,25.62 -5.2,-25.62 5.2,-25.62 z"
             class="mean"
             inkscape:connector-curvature="0" />
        </g>
        <g
           id="g24682"
           style="opacity:1"
           class="trace boxes">
          <path
             id="path24650"
             style="vector-effect:non-scaling-stroke;fill:#0000ff;fill-opacity:0.5;stroke:#0000ff;stroke-width:2px;stroke-opacity:1"
             d="m 39.16,257.65 h 10.39 m -10.39,1 h 10.39 v -4.07 H 39.16 Z m 5.2,0 v 0.41 m 0,-4.48 v 0 m -2.6,4.48 h 5.19 m -5.19,-4.48 h 5.19"
             class="box"
             inkscape:connector-curvature="0" />
          <path
             id="path24652"
             style="vector-effect:non-scaling-stroke;fill:#0000ff;fill-opacity:0.5;stroke:#0000ff;stroke-width:2px;stroke-opacity:1"
             d="m 166.41,259.62 h 10.39 m -10.39,0.6 h 10.39 v -1.6 h -10.39 z m 5.2,0 v 0.01 m 0,-1.61 v -0.85 m -2.6,2.46 h 5.19 m -5.19,-2.46 h 5.19"
             class="box"
             inkscape:connector-curvature="0" />
          <path
             id="path24654"
             style="vector-effect:non-scaling-stroke;fill:#0000ff;fill-opacity:0.5;stroke:#0000ff;stroke-width:2px;stroke-opacity:1"
             d="m 293.66,27.04 h 10.39 m -10.39,18.97 h 10.39 V 26.04 h -10.39 z m 5.2,0 v 17.75 m 0,-37.72 V 25.5 m -2.6,38.26 h 5.19 M 296.26,25.5 h 5.19"
             class="box"
             inkscape:connector-curvature="0" />
          <path
             id="path24656"
             style="vector-effect:non-scaling-stroke;fill:#0000ff;fill-opacity:0.5;stroke:#0000ff;stroke-width:2px;stroke-opacity:1"
             d="m 420.91,258.82 h 10.39 m -10.39,1 h 10.39 v -5.33 h -10.39 z m 5.2,0 v 0.07 m 0,-5.4 v -1.59 m -2.6,6.99 h 5.19 m -5.19,-6.99 h 5.19"
             class="box"
             inkscape:connector-curvature="0" />
          <g
             id="g24662"
             class="points">
            <path
               id="path24658"
               style="opacity:1;fill:#0000ff;fill-opacity:1;stroke-width:0px"
               d="M 3,0 A 3,3 0 1 1 0,-3 3,3 0 0 1 3,0 Z"
               transform="translate(44.36,246.39)"
               class="point"
               inkscape:connector-curvature="0" />
            <path
               id="path24660"
               style="opacity:1;fill:#0000ff;fill-opacity:1;stroke-width:0px"
               d="M 3,0 A 3,3 0 1 1 0,-3 3,3 0 0 1 3,0 Z"
               transform="translate(44.36,238.88)"
               class="point"
               inkscape:connector-curvature="0" />
          </g>
          <g
             id="g24666"
             class="points">
            <path
               id="path24664"
               style="opacity:1;fill:#0000ff;fill-opacity:1;stroke-width:0px"
               d="M 3,0 A 3,3 0 1 1 0,-3 3,3 0 0 1 3,0 Z"
               transform="translate(171.61,254.59)"
               class="point"
               inkscape:connector-curvature="0" />
          </g>
          <g
             id="g24668"
             class="points" />
          <g
             id="g24672"
             class="points">
            <path
               id="path24670"
               style="opacity:1;fill:#0000ff;fill-opacity:1;stroke-width:0px"
               d="M 3,0 A 3,3 0 1 1 0,-3 3,3 0 0 1 3,0 Z"
               transform="translate(426.11,231.73)"
               class="point"
               inkscape:connector-curvature="0" />
          </g>
          <path
             id="path24674"
             style="vector-effect:non-scaling-stroke;fill:none;stroke:#0000ff;stroke-width:2;stroke-dasharray:4;stroke-opacity:1"
             d="m 39.16,254.93 h 10.39 m 0,0 -5.19,6.49 -5.2,-6.49 5.2,-6.49 z"
             class="mean"
             inkscape:connector-curvature="0" />
          <path
             id="path24676"
             style="vector-effect:non-scaling-stroke;fill:none;stroke:#0000ff;stroke-width:2;stroke-dasharray:4;stroke-opacity:1"
             d="m 166.41,259.16 h 10.39 m 0,0 -5.19,1.72 -5.2,-1.72 5.2,-1.71 z"
             class="mean"
             inkscape:connector-curvature="0" />
          <path
             id="path24678"
             style="vector-effect:non-scaling-stroke;fill:none;stroke:#0000ff;stroke-width:2;stroke-dasharray:4;stroke-opacity:1"
             d="m 293.66,34.89 h 10.39 m 0,0 -5.19,13.57 -5.2,-13.57 5.2,-13.58 z"
             class="mean"
             inkscape:connector-curvature="0" />
          <path
             id="path24680"
             style="vector-effect:non-scaling-stroke;fill:none;stroke:#0000ff;stroke-width:2;stroke-dasharray:4;stroke-opacity:1"
             d="m 420.91,255.68 h 10.39 m 0,0 -5.19,8.34 -5.2,-8.34 5.2,-8.33 z"
             class="mean"
             inkscape:connector-curvature="0" />
        </g>
        <g
           id="g24712"
           style="opacity:1"
           class="trace boxes">
          <path
             id="path24684"
             style="vector-effect:non-scaling-stroke;fill:#808080;fill-opacity:0.5;stroke:#808080;stroke-width:2px;stroke-opacity:1"
             d="M 54.01,192.73 H 64.4 m -10.39,6.78 H 64.4 V 186.53 H 54.01 Z m 5.19,0 v 7.81 m 0,-20.79 v -9.84 m -2.6,30.63 h 5.2 m -5.2,-30.63 h 5.2"
             class="box"
             inkscape:connector-curvature="0" />
          <path
             id="path24686"
             style="vector-effect:non-scaling-stroke;fill:#808080;fill-opacity:0.5;stroke:#808080;stroke-width:2px;stroke-opacity:1"
             d="m 181.26,193.77 h 10.39 m -10.39,5.36 h 10.39 v -12.57 h -10.39 z m 5.19,0 v 3.44 m 0,-16.01 v -12.52 m -2.6,28.53 h 5.2 m -5.2,-28.53 h 5.2"
             class="box"
             inkscape:connector-curvature="0" />
          <path
             id="path24688"
             style="vector-effect:non-scaling-stroke;fill:#808080;fill-opacity:0.5;stroke:#808080;stroke-width:2px;stroke-opacity:1"
             d="m 308.51,207.91 h 10.39 m -10.39,1.53 h 10.39 v -9.45 h -10.39 z m 5.19,0 v 10.08 m 0,-19.53 v -3.5 m -2.6,23.03 h 5.2 m -5.2,-23.03 h 5.2"
             class="box"
             inkscape:connector-curvature="0" />
          <path
             id="path24690"
             style="vector-effect:non-scaling-stroke;fill:#808080;fill-opacity:0.5;stroke:#808080;stroke-width:2px;stroke-opacity:1"
             d="m 435.76,215.12 h 10.39 m -10.39,2.46 h 10.39 v -4.77 h -10.39 z m 5.19,0 v 3.4 m 0,-8.17 v -4.13 m -2.6,12.3 h 5.2 m -5.2,-12.3 h 5.2"
             class="box"
             inkscape:connector-curvature="0" />
          <g
             id="g24692"
             class="points" />
          <g
             id="g24694"
             class="points" />
          <g
             id="g24698"
             class="points">
            <path
               id="path24696"
               style="opacity:1;fill:#808080;fill-opacity:1;stroke-width:0px"
               d="M 3,0 A 3,3 0 1 1 0,-3 3,3 0 0 1 3,0 Z"
               transform="translate(313.7,185.04)"
               class="point"
               inkscape:connector-curvature="0" />
          </g>
          <g
             id="g24702"
             class="points">
            <path
               id="path24700"
               style="opacity:1;fill:#808080;fill-opacity:1;stroke-width:0px"
               d="M 3,0 A 3,3 0 1 1 0,-3 3,3 0 0 1 3,0 Z"
               transform="translate(440.95,201.08)"
               class="point"
               inkscape:connector-curvature="0" />
          </g>
          <path
             id="path24704"
             style="vector-effect:non-scaling-stroke;fill:none;stroke:#808080;stroke-width:2;stroke-dasharray:4;stroke-opacity:1"
             d="M 54.01,192.93 H 64.4 m 0,0 -5.2,9.27 -5.19,-9.27 5.19,-9.27 z"
             class="mean"
             inkscape:connector-curvature="0" />
          <path
             id="path24706"
             style="vector-effect:non-scaling-stroke;fill:none;stroke:#808080;stroke-width:2;stroke-dasharray:4;stroke-opacity:1"
             d="m 181.26,192.12 h 10.39 m 0,0 -5.2,8.16 -5.19,-8.16 5.19,-8.16 z"
             class="mean"
             inkscape:connector-curvature="0" />
          <path
             id="path24708"
             style="vector-effect:non-scaling-stroke;fill:none;stroke:#808080;stroke-width:2;stroke-dasharray:4;stroke-opacity:1"
             d="m 308.51,205.48 h 10.39 m 0,0 -5.2,9.27 -5.19,-9.27 5.19,-9.27 z"
             class="mean"
             inkscape:connector-curvature="0" />
          <path
             id="path24710"
             style="vector-effect:non-scaling-stroke;fill:none;stroke:#808080;stroke-width:2;stroke-dasharray:4;stroke-opacity:1"
             d="m 435.76,214.14 h 10.39 m 0,0 -5.2,5.45 -5.19,-5.45 5.19,-5.46 z"
             class="mean"
             inkscape:connector-curvature="0" />
        </g>
        <g
           id="g24744"
           style="opacity:1"
           class="trace boxes">
          <path
             id="path24714"
             style="vector-effect:non-scaling-stroke;fill:#008000;fill-opacity:0.5;stroke:#008000;stroke-width:2px;stroke-opacity:1"
             d="M 68.85,159.09 H 79.24 M 68.85,201.5 H 79.24 V 153.07 H 68.85 Z m 5.2,0 v 10.03 m 0,-58.46 v -11.03 m -2.6,69.49 h 5.2 m -5.2,-69.49 h 5.2"
             class="box"
             inkscape:connector-curvature="0" />
          <path
             id="path24716"
             style="vector-effect:non-scaling-stroke;fill:#008000;fill-opacity:0.5;stroke:#008000;stroke-width:2px;stroke-opacity:1"
             d="m 196.1,172.41 h 10.39 m -10.39,7.19 h 10.39 V 161.44 H 196.1 Z m 5.2,0 v 13.72 m 0,-31.88 v -20.62 m -2.6,52.5 h 5.2 m -5.2,-52.5 h 5.2"
             class="box"
             inkscape:connector-curvature="0" />
          <path
             id="path24718"
             style="vector-effect:non-scaling-stroke;fill:#008000;fill-opacity:0.5;stroke:#008000;stroke-width:2px;stroke-opacity:1"
             d="m 323.35,221.16 h 10.39 m -10.39,4.99 h 10.39 v -11.82 h -10.39 z m 5.2,0 v 6.74 m 0,-18.56 v -5.49 m -2.6,24.05 h 5.2 m -5.2,-24.05 h 5.2"
             class="box"
             inkscape:connector-curvature="0" />
          <path
             id="path24720"
             style="vector-effect:non-scaling-stroke;fill:#008000;fill-opacity:0.5;stroke:#008000;stroke-width:2px;stroke-opacity:1"
             d="m 450.6,250.47 h 10.39 m -10.39,1 h 10.39 v -3.45 H 450.6 Z m 5.2,0 v 1.34 m 0,-4.79 v 0 m -2.6,4.79 h 5.2 m -5.2,-4.79 h 5.2"
             class="box"
             inkscape:connector-curvature="0" />
          <g
             id="g24722"
             class="points" />
          <g
             id="g24726"
             class="points">
            <path
               id="path24724"
               style="opacity:1;fill:#008000;fill-opacity:1;stroke-width:0px"
               d="M 3,0 A 3,3 0 1 1 0,-3 3,3 0 0 1 3,0 Z"
               transform="translate(201.3,223.02)"
               class="point"
               inkscape:connector-curvature="0" />
          </g>
          <g
             id="g24728"
             class="points" />
          <g
             id="g24734"
             class="points">
            <path
               id="path24730"
               style="opacity:1;fill:#008000;fill-opacity:1;stroke-width:0px"
               d="M 3,0 A 3,3 0 1 1 0,-3 3,3 0 0 1 3,0 Z"
               transform="translate(455.8,238.4)"
               class="point"
               inkscape:connector-curvature="0" />
            <path
               id="path24732"
               style="opacity:1;fill:#008000;fill-opacity:1;stroke-width:0px"
               d="M 3,0 A 3,3 0 1 1 0,-3 3,3 0 0 1 3,0 Z"
               transform="translate(455.8,158.34)"
               class="point"
               inkscape:connector-curvature="0" />
          </g>
          <path
             id="path24736"
             style="vector-effect:non-scaling-stroke;fill:none;stroke:#008000;stroke-width:2;stroke-dasharray:4;stroke-opacity:1"
             d="m 68.85,170.1 h 10.39 m 0,0 -5.19,25.67 -5.2,-25.67 5.2,-25.66 z"
             class="mean"
             inkscape:connector-curvature="0" />
          <path
             id="path24738"
             style="vector-effect:non-scaling-stroke;fill:none;stroke:#008000;stroke-width:2;stroke-dasharray:4;stroke-opacity:1"
             d="m 196.1,173.76 h 10.39 m 0,0 -5.19,21.9 -5.2,-21.9 5.2,-21.9 z"
             class="mean"
             inkscape:connector-curvature="0" />
          <path
             id="path24740"
             style="vector-effect:non-scaling-stroke;fill:none;stroke:#008000;stroke-width:2;stroke-dasharray:4;stroke-opacity:1"
             d="m 323.35,220.6 h 10.39 m 0,0 -5.19,7.24 -5.2,-7.24 5.2,-7.25 z"
             class="mean"
             inkscape:connector-curvature="0" />
          <path
             id="path24742"
             style="vector-effect:non-scaling-stroke;fill:none;stroke:#008000;stroke-width:2;stroke-dasharray:4;stroke-opacity:1"
             d="m 450.6,240.21 h 10.39 m 0,0 -5.19,27.56 -5.2,-27.56 5.2,-27.56 z"
             class="mean"
             inkscape:connector-curvature="0" />
        </g>
        <g
           id="g24774"
           style="opacity:1"
           class="trace boxes">
          <path
             id="path24746"
             style="vector-effect:non-scaling-stroke;fill:#a52a2a;fill-opacity:0.5;stroke:#a52a2a;stroke-width:2px;stroke-opacity:1"
             d="m 83.7,227.44 h 10.39 m -10.39,1.9 H 94.09 V 216.02 H 83.7 Z m 5.19,0 v 2.42 m 0,-15.74 v -9.59 m -2.59,25.33 h 5.19 M 86.3,206.43 h 5.19"
             class="box"
             inkscape:connector-curvature="0" />
          <path
             id="path24748"
             style="vector-effect:non-scaling-stroke;fill:#a52a2a;fill-opacity:0.5;stroke:#a52a2a;stroke-width:2px;stroke-opacity:1"
             d="m 210.95,220.47 h 10.39 m -10.39,2.01 h 10.39 v -4.82 h -10.39 z m 5.19,0 v 2.76 m 0,-7.58 v 0 m -2.59,7.58 h 5.19 m -5.19,-7.58 h 5.19"
             class="box"
             inkscape:connector-curvature="0" />
          <path
             id="path24750"
             style="vector-effect:non-scaling-stroke;fill:#a52a2a;fill-opacity:0.5;stroke:#a52a2a;stroke-width:2px;stroke-opacity:1"
             d="m 338.2,190.37 h 10.39 m -10.39,4.78 h 10.39 V 178.43 H 338.2 Z m 5.19,0 v 1.05 m 0,-17.77 v -3 m -2.59,20.77 h 5.19 m -5.19,-20.77 h 5.19"
             class="box"
             inkscape:connector-curvature="0" />
          <path
             id="path24752"
             style="vector-effect:non-scaling-stroke;fill:#a52a2a;fill-opacity:0.5;stroke:#a52a2a;stroke-width:2px;stroke-opacity:1"
             d="m 465.45,168.22 h 10.39 m -10.39,14.44 h 10.39 v -19.23 h -10.39 z m 5.19,0 v 28.01 m 0,-47.24 v -2.75 m -2.59,49.99 h 5.19 m -5.19,-49.99 h 5.19"
             class="box"
             inkscape:connector-curvature="0" />
          <g
             id="g24754"
             class="points" />
          <g
             id="g24760"
             class="points">
            <path
               id="path24756"
               style="opacity:1;fill:#a52a2a;fill-opacity:1;stroke-width:0px"
               d="M 3,0 A 3,3 0 1 1 0,-3 3,3 0 0 1 3,0 Z"
               transform="translate(216.14,210.43)"
               class="point"
               inkscape:connector-curvature="0" />
            <path
               id="path24758"
               style="opacity:1;fill:#a52a2a;fill-opacity:1;stroke-width:0px"
               d="M 3,0 A 3,3 0 1 1 0,-3 3,3 0 0 1 3,0 Z"
               transform="translate(216.14,204.3)"
               class="point"
               inkscape:connector-curvature="0" />
          </g>
          <g
             id="g24762"
             class="points" />
          <g
             id="g24764"
             class="points" />
          <path
             id="path24766"
             style="vector-effect:non-scaling-stroke;fill:none;stroke:#a52a2a;stroke-width:2;stroke-dasharray:4;stroke-opacity:1"
             d="m 83.7,223.19 h 10.39 m 0,0 -5.2,8.3 -5.19,-8.3 5.19,-8.3 z"
             class="mean"
             inkscape:connector-curvature="0" />
          <path
             id="path24768"
             style="vector-effect:non-scaling-stroke;fill:none;stroke:#a52a2a;stroke-width:2;stroke-dasharray:4;stroke-opacity:1"
             d="m 210.95,218.44 h 10.39 m 0,0 -5.2,6.06 -5.19,-6.06 5.19,-6.06 z"
             class="mean"
             inkscape:connector-curvature="0" />
          <path
             id="path24770"
             style="vector-effect:non-scaling-stroke;fill:none;stroke:#a52a2a;stroke-width:2;stroke-dasharray:4;stroke-opacity:1"
             d="m 338.2,188.3 h 10.39 m 0,0 -5.2,7.86 -5.19,-7.86 5.19,-7.86 z"
             class="mean"
             inkscape:connector-curvature="0" />
          <path
             id="path24772"
             style="vector-effect:non-scaling-stroke;fill:none;stroke:#a52a2a;stroke-width:2;stroke-dasharray:4;stroke-opacity:1"
             d="m 465.45,174.74 h 10.39 m 0,0 -5.2,15.36 -5.19,-15.36 5.19,-15.37 z"
             class="mean"
             inkscape:connector-curvature="0" />
        </g>
        <g
           id="g24810"
           style="opacity:1"
           class="trace boxes">
          <path
             id="path24776"
             style="vector-effect:non-scaling-stroke;fill:#5f9ea0;fill-opacity:0.5;stroke:#5f9ea0;stroke-width:2px;stroke-opacity:1"
             d="m 98.54,260.31 h 10.4 m -10.4,0.01 h 10.4 v -0.08 h -10.4 z m 5.2,0 v 0.01 m 0,-0.09 v 0 m -2.6,0.09 h 5.2 m -5.2,-0.09 h 5.2"
             class="box"
             inkscape:connector-curvature="0" />
          <path
             id="path24778"
             style="vector-effect:non-scaling-stroke;fill:#5f9ea0;fill-opacity:0.5;stroke:#5f9ea0;stroke-width:2px;stroke-opacity:1"
             d="m 225.79,260.25 h 10.4 m -10.4,0.03 h 10.4 v -0.48 h -10.4 z m 5.2,0 v 0.03 m 0,-0.51 v -0.45 m -2.6,0.96 h 5.2 m -5.2,-0.96 h 5.2"
             class="box"
             inkscape:connector-curvature="0" />
          <path
             id="path24780"
             style="vector-effect:non-scaling-stroke;fill:#5f9ea0;fill-opacity:0.5;stroke:#5f9ea0;stroke-width:2px;stroke-opacity:1"
             d="m 353.04,25.02 h 10.4 m -10.4,2.18 h 10.4 v -3.37 h -10.4 z m 5.2,0 v 1.87 m 0,-5.24 V 23.8 m -2.6,5.27 h 5.2 m -5.2,-5.27 h 5.2"
             class="box"
             inkscape:connector-curvature="0" />
          <path
             id="path24782"
             style="vector-effect:non-scaling-stroke;fill:#5f9ea0;fill-opacity:0.5;stroke:#5f9ea0;stroke-width:2px;stroke-opacity:1"
             d="m 480.29,259.18 h 10.4 m -10.4,1.03 h 10.4 v -2.27 h -10.4 z m 5.2,0 v 0.12 m 0,-2.39 v -0.92 m -2.6,3.31 h 5.2 m -5.2,-3.31 h 5.2"
             class="box"
             inkscape:connector-curvature="0" />
          <g
             id="g24788"
             class="points">
            <path
               id="path24784"
               style="opacity:1;fill:#5f9ea0;fill-opacity:1;stroke-width:0px"
               d="M 3,0 A 3,3 0 1 1 0,-3 3,3 0 0 1 3,0 Z"
               transform="translate(103.74,259.97)"
               class="point"
               inkscape:connector-curvature="0" />
            <path
               id="path24786"
               style="opacity:1;fill:#5f9ea0;fill-opacity:1;stroke-width:0px"
               d="M 3,0 A 3,3 0 1 1 0,-3 3,3 0 0 1 3,0 Z"
               transform="translate(103.74,259.85)"
               class="point"
               inkscape:connector-curvature="0" />
          </g>
          <g
             id="g24792"
             class="points">
            <path
               id="path24790"
               style="opacity:1;fill:#5f9ea0;fill-opacity:1;stroke-width:0px"
               d="M 3,0 A 3,3 0 1 1 0,-3 3,3 0 0 1 3,0 Z"
               transform="translate(230.99,257.81)"
               class="point"
               inkscape:connector-curvature="0" />
          </g>
          <g
             id="g24796"
             class="points">
            <path
               id="path24794"
               style="opacity:1;fill:#5f9ea0;fill-opacity:1;stroke-width:0px"
               d="M 3,0 A 3,3 0 1 1 0,-3 3,3 0 0 1 3,0 Z"
               transform="translate(358.24,33.73)"
               class="point"
               inkscape:connector-curvature="0" />
          </g>
          <g
             id="g24800"
             class="points">
            <path
               id="path24798"
               style="opacity:1;fill:#5f9ea0;fill-opacity:1;stroke-width:0px"
               d="M 3,0 A 3,3 0 1 1 0,-3 3,3 0 0 1 3,0 Z"
               transform="translate(485.49,251.62)"
               class="point"
               inkscape:connector-curvature="0" />
          </g>
          <path
             id="path24802"
             style="vector-effect:non-scaling-stroke;fill:none;stroke:#5f9ea0;stroke-width:2;stroke-dasharray:4;stroke-opacity:1"
             d="m 98.54,260.23 h 10.4 m 0,0 -5.2,0.16 -5.2,-0.16 5.2,-0.17 z"
             class="mean"
             inkscape:connector-curvature="0" />
          <path
             id="path24804"
             style="vector-effect:non-scaling-stroke;fill:none;stroke:#5f9ea0;stroke-width:2;stroke-dasharray:4;stroke-opacity:1"
             d="m 225.79,259.88 h 10.4 m 0,0 -5.2,0.76 -5.2,-0.76 5.2,-0.75 z"
             class="mean"
             inkscape:connector-curvature="0" />
          <path
             id="path24806"
             style="vector-effect:non-scaling-stroke;fill:none;stroke:#5f9ea0;stroke-width:2;stroke-dasharray:4;stroke-opacity:1"
             d="m 353.04,26.17 h 10.4 m 0,0 -5.2,3 -5.2,-3 5.2,-3 z"
             class="mean"
             inkscape:connector-curvature="0" />
          <path
             id="path24808"
             style="vector-effect:non-scaling-stroke;fill:none;stroke:#5f9ea0;stroke-width:2;stroke-dasharray:4;stroke-opacity:1"
             d="m 480.29,258.38 h 10.4 m 0,0 -5.2,2.49 -5.2,-2.49 5.2,-2.48 z"
             class="mean"
             inkscape:connector-curvature="0" />
        </g>
      </g>
    </g>
    <g
       id="g24816"
       class="overplot" />
    <path
       id="path24818"
       style="fill:none;stroke:#ffffff;stroke-width:1px;stroke-opacity:1"
       d="M 79,384.5 H 595"
       class="xlines-above crisp"
       inkscape:connector-curvature="0" />
    <path
       id="path24820"
       style="fill:none;stroke:#ffffff;stroke-width:1px;stroke-opacity:1"
       d="M 79.5,100 V 384"
       class="ylines-above crisp"
       inkscape:connector-curvature="0" />
    <g
       id="g24822"
       class="overlines-above" />
    <g
       id="g24840"
       class="xaxislayer-above">
      <g
         id="g24826"
         class="xtick">
        <text
           id="text24824"
           style="font-size:12px;font-family:sans-serif;text-anchor:start;white-space:pre;fill:#2a3f5f;fill-opacity:1;-inkscape-font-specification:'sans-serif, Normal';font-weight:normal;font-style:normal;font-stretch:normal;font-variant:normal;text-align:start;writing-mode:lr;font-variant-ligatures:normal;font-variant-caps:normal;font-variant-numeric:normal;font-feature-settings:normal;"
           transform="rotate(30,73.315,667.0153)"
           y="399.39999"
           x="0">
          <tspan
             sodipodi:role="line"
             id="tspan26071">&lt;START&gt; - role 0</tspan>
        </text>
      </g>
      <g
         id="g24830"
         class="xtick">
        <text
           id="text24828"
           style="font-size:12px;font-family:'Open Sans', verdana, arial, sans-serif;text-anchor:start;white-space:pre;fill:#2a3f5f;fill-opacity:1"
           transform="rotate(30,136.94,904.46704)"
           y="399.39999"
           x="0">Assign seriousness - role 1</text>
      </g>
      <g
         id="g24834"
         class="xtick">
        <text
           id="text24832"
           style="font-size:12px;font-family:'Open Sans', verdana, arial, sans-serif;text-anchor:start;white-space:pre;fill:#2a3f5f;fill-opacity:1"
           transform="rotate(30,200.565,1141.9188)"
           y="399.39999"
           x="0">Take in charge ticket - role 1</text>
      </g>
      <g
         id="g24838"
         class="xtick">
        <text
           id="text24836"
           style="font-size:12px;font-family:'Open Sans', verdana, arial, sans-serif;text-anchor:start;white-space:pre;fill:#2a3f5f;fill-opacity:1"
           transform="rotate(30,264.185,1379.3518)"
           y="399.39999"
           x="0">Wait - role 1</text>
      </g>
    </g>
    <g
       id="g24866"
       class="yaxislayer-above">
      <g
         id="g24844"
         class="ytick">
        <text
           id="text24842"
           style="font-size:12px;font-family:'Open Sans', verdana, arial, sans-serif;text-anchor:end;white-space:pre;fill:#2a3f5f;fill-opacity:1"
           transform="translate(0,360.33)"
           y="4.1999998"
           x="76.599998">0</text>
      </g>
      <g
         id="g24848"
         class="ytick">
        <text
           id="text24846"
           style="font-size:12px;font-family:'Open Sans', verdana, arial, sans-serif;text-anchor:end;white-space:pre;fill:#2a3f5f;fill-opacity:1"
           transform="translate(0,313)"
           y="4.1999998"
           x="76.599998">0.2</text>
      </g>
      <g
         id="g24852"
         class="ytick">
        <text
           id="text24850"
           style="font-size:12px;font-family:'Open Sans', verdana, arial, sans-serif;text-anchor:end;white-space:pre;fill:#2a3f5f;fill-opacity:1"
           transform="translate(0,265.67)"
           y="4.1999998"
           x="76.599998">0.4</text>
      </g>
      <g
         id="g24856"
         class="ytick">
        <text
           id="text24854"
           style="font-size:12px;font-family:'Open Sans', verdana, arial, sans-serif;text-anchor:end;white-space:pre;fill:#2a3f5f;fill-opacity:1"
           transform="translate(0,218.33)"
           y="4.1999998"
           x="76.599998">0.6</text>
      </g>
      <g
         id="g24860"
         class="ytick">
        <text
           id="text24858"
           style="font-size:12px;font-family:'Open Sans', verdana, arial, sans-serif;text-anchor:end;white-space:pre;fill:#2a3f5f;fill-opacity:1"
           transform="translate(0,171)"
           y="4.1999998"
           x="76.599998">0.8</text>
      </g>
      <g
         id="g24864"
         class="ytick">
        <text
           id="text24862"
           style="font-size:12px;font-family:'Open Sans', verdana, arial, sans-serif;text-anchor:end;white-space:pre;fill:#2a3f5f;fill-opacity:1"
           transform="translate(0,123.67)"
           y="4.1999998"
           x="76.599998">1</text>
      </g>
    </g>
    <g
       id="g24868"
       class="overaxes-above" />
  </g>
  <rect
     class="bg"
     width="83"
     height="124"
     x="547.52032"
     y="0"
     style="fill:#ffffff;fill-opacity:1;stroke:#444444;stroke-width:0px;stroke-opacity:1;shape-rendering:crispEdges"
     id="rect24902" />
  <g
     transform="translate(547.52031)"
     class="scrollbox"
     clip-path="url(#legend57a61d)"
     id="g25014">
    <g
       class="groups"
       id="g25012">
      <g
         class="traces"
         transform="translate(0,14.5)"
         style="opacity:1"
         id="g24920">
        <text
           class="legendtext user-select-none"
           x="40"
           y="4.6799998"
           style="font-size:12px;font-family:'Open Sans', verdana, arial, sans-serif;text-anchor:start;white-space:pre;fill:#2a3f5f;fill-opacity:1"
           id="text24904">head1</text>
        <g
           class="layers"
           style="opacity:1"
           id="g24916">
          <g
             class="legendfill"
             id="g24906" />
          <g
             class="legendlines"
             id="g24908" />
          <g
             class="legendsymbols"
             id="g24914">
            <g
               class="legendpoints"
               id="g24912">
              <path
                 class="legendbox"
                 d="M 6,6 H -6 V -6 H 6 Z"
                 transform="translate(20)"
                 style="fill:#ff0000;fill-opacity:0.5;stroke:#ff0000;stroke-width:2px;stroke-opacity:1"
                 id="path24910"
                 inkscape:connector-curvature="0" />
            </g>
          </g>
        </g>
        <rect
           class="legendtoggle"
           pointer-events="all"
           x="0"
           y="-9.5"
           width="77.4375"
           height="19"
           style="fill:#000000;fill-opacity:0"
           id="rect24918" />
      </g>
      <g
         class="traces"
         transform="translate(0,33.5)"
         style="opacity:1"
         id="g24938">
        <text
           class="legendtext user-select-none"
           x="40"
           y="4.6799998"
           style="font-size:12px;font-family:'Open Sans', verdana, arial, sans-serif;text-anchor:start;white-space:pre;fill:#2a3f5f;fill-opacity:1"
           id="text24922">head2</text>
        <g
           class="layers"
           style="opacity:1"
           id="g24934">
          <g
             class="legendfill"
             id="g24924" />
          <g
             class="legendlines"
             id="g24926" />
          <g
             class="legendsymbols"
             id="g24932">
            <g
               class="legendpoints"
               id="g24930">
              <path
                 class="legendbox"
                 d="M 6,6 H -6 V -6 H 6 Z"
                 transform="translate(20)"
                 style="fill:#0000ff;fill-opacity:0.5;stroke:#0000ff;stroke-width:2px;stroke-opacity:1"
                 id="path24928"
                 inkscape:connector-curvature="0" />
            </g>
          </g>
        </g>
        <rect
           class="legendtoggle"
           pointer-events="all"
           x="0"
           y="-9.5"
           width="77.4375"
           height="19"
           style="fill:#000000;fill-opacity:0"
           id="rect24936" />
      </g>
      <g
         class="traces"
         transform="translate(0,52.5)"
         style="opacity:1"
         id="g24956">
        <text
           class="legendtext user-select-none"
           x="40"
           y="4.6799998"
           style="font-size:12px;font-family:'Open Sans', verdana, arial, sans-serif;text-anchor:start;white-space:pre;fill:#2a3f5f;fill-opacity:1"
           id="text24940">head3</text>
        <g
           class="layers"
           style="opacity:1"
           id="g24952">
          <g
             class="legendfill"
             id="g24942" />
          <g
             class="legendlines"
             id="g24944" />
          <g
             class="legendsymbols"
             id="g24950">
            <g
               class="legendpoints"
               id="g24948">
              <path
                 class="legendbox"
                 d="M 6,6 H -6 V -6 H 6 Z"
                 transform="translate(20)"
                 style="fill:#808080;fill-opacity:0.5;stroke:#808080;stroke-width:2px;stroke-opacity:1"
                 id="path24946"
                 inkscape:connector-curvature="0" />
            </g>
          </g>
        </g>
        <rect
           class="legendtoggle"
           pointer-events="all"
           x="0"
           y="-9.5"
           width="77.4375"
           height="19"
           style="fill:#000000;fill-opacity:0"
           id="rect24954" />
      </g>
      <g
         class="traces"
         transform="translate(0,71.5)"
         style="opacity:1"
         id="g24974">
        <text
           class="legendtext user-select-none"
           x="40"
           y="4.6799998"
           style="font-size:12px;font-family:'Open Sans', verdana, arial, sans-serif;text-anchor:start;white-space:pre;fill:#2a3f5f;fill-opacity:1"
           id="text24958">head4</text>
        <g
           class="layers"
           style="opacity:1"
           id="g24970">
          <g
             class="legendfill"
             id="g24960" />
          <g
             class="legendlines"
             id="g24962" />
          <g
             class="legendsymbols"
             id="g24968">
            <g
               class="legendpoints"
               id="g24966">
              <path
                 class="legendbox"
                 d="M 6,6 H -6 V -6 H 6 Z"
                 transform="translate(20)"
                 style="fill:#008000;fill-opacity:0.5;stroke:#008000;stroke-width:2px;stroke-opacity:1"
                 id="path24964"
                 inkscape:connector-curvature="0" />
            </g>
          </g>
        </g>
        <rect
           class="legendtoggle"
           pointer-events="all"
           x="0"
           y="-9.5"
           width="77.4375"
           height="19"
           style="fill:#000000;fill-opacity:0"
           id="rect24972" />
      </g>
      <g
         class="traces"
         transform="translate(0,90.5)"
         style="opacity:1"
         id="g24992">
        <text
           class="legendtext user-select-none"
           x="40"
           y="4.6799998"
           style="font-size:12px;font-family:'Open Sans', verdana, arial, sans-serif;text-anchor:start;white-space:pre;fill:#2a3f5f;fill-opacity:1"
           id="text24976">head5</text>
        <g
           class="layers"
           style="opacity:1"
           id="g24988">
          <g
             class="legendfill"
             id="g24978" />
          <g
             class="legendlines"
             id="g24980" />
          <g
             class="legendsymbols"
             id="g24986">
            <g
               class="legendpoints"
               id="g24984">
              <path
                 class="legendbox"
                 d="M 6,6 H -6 V -6 H 6 Z"
                 transform="translate(20)"
                 style="fill:#a52a2a;fill-opacity:0.5;stroke:#a52a2a;stroke-width:2px;stroke-opacity:1"
                 id="path24982"
                 inkscape:connector-curvature="0" />
            </g>
          </g>
        </g>
        <rect
           class="legendtoggle"
           pointer-events="all"
           x="0"
           y="-9.5"
           width="77.4375"
           height="19"
           style="fill:#000000;fill-opacity:0"
           id="rect24990" />
      </g>
      <g
         class="traces"
         transform="translate(0,109.5)"
         style="opacity:1"
         id="g25010">
        <text
           class="legendtext user-select-none"
           x="40"
           y="4.6799998"
           style="font-size:12px;font-family:'Open Sans', verdana, arial, sans-serif;text-anchor:start;white-space:pre;fill:#2a3f5f;fill-opacity:1"
           id="text24994">head6</text>
        <g
           class="layers"
           style="opacity:1"
           id="g25006">
          <g
             class="legendfill"
             id="g24996" />
          <g
             class="legendlines"
             id="g24998" />
          <g
             class="legendsymbols"
             id="g25004">
            <g
               class="legendpoints"
               id="g25002">
              <path
                 class="legendbox"
                 d="M 6,6 H -6 V -6 H 6 Z"
                 transform="translate(20)"
                 style="fill:#5f9ea0;fill-opacity:0.5;stroke:#5f9ea0;stroke-width:2px;stroke-opacity:1"
                 id="path25000"
                 inkscape:connector-curvature="0" />
            </g>
          </g>
        </g>
        <rect
           class="legendtoggle"
           pointer-events="all"
           x="0"
           y="-9.5"
           width="77.4375"
           height="19"
           style="fill:#000000;fill-opacity:0"
           id="rect25008" />
      </g>
    </g>
  </g>
  <rect
     class="scrollbar"
     rx="20"
     ry="3"
     width="0"
     height="0"
     x="547.52032"
     y="0"
     style="fill:#808ba4;fill-opacity:1"
     id="rect25016" />
  <g
     id="g25020"
     class="g-gtitle"
     transform="translate(-57.779686,-100)" />
  <g
     id="g25022"
     class="g-xtitle"
     transform="translate(-57.779686,-100)" />
  <g
     id="g25024"
     class="g-ytitle"
     transform="translate(-57.779686,-100)" />
</svg>
